<?xml version="1.0" encoding="UTF-8"?>
<!DOCTYPE svg PUBLIC "-//W3C//DTD SVG 1.1//EN" "http://www.w3.org/Graphics/SVG/1.1/DTD/svg11.dtd">
<svg xmlns="http://www.w3.org/2000/svg" version="1.1" width="312px" height="329px" style="shape-rendering:geometricPrecision; text-rendering:geometricPrecision; image-rendering:optimizeQuality; fill-rule:evenodd; clip-rule:evenodd" xmlns:xlink="http://www.w3.org/1999/xlink">
<g><path style="opacity:0.961" fill="#f7e94d" d="M 170.5,25.5 C 161.498,25.7859 152.498,26.1192 143.5,26.5C 134.652,26.2597 125.985,26.9264 117.5,28.5C 125.829,25.7751 134.496,24.1084 143.5,23.5C 149.661,24.7235 155.827,24.7235 162,23.5C 165.15,23.3603 167.983,24.027 170.5,25.5 Z"/></g>
<g><path style="opacity:1" fill="#fce40a" d="M 170.5,25.5 C 171.167,25.5 171.833,25.5 172.5,25.5C 175.435,26.2692 178.435,26.9359 181.5,27.5C 184.785,29.5062 188.118,31.1729 191.5,32.5C 186.764,32.8853 186.431,34.2186 190.5,36.5C 188.577,37.3078 186.577,37.8078 184.5,38C 183.833,39.3333 182.833,40.3333 181.5,41C 182.167,41.3333 182.833,41.6667 183.5,42C 179.385,42.5132 175.551,41.6798 172,39.5C 169.281,40.4438 166.448,40.7771 163.5,40.5C 153.812,40.3798 144.146,40.7131 134.5,41.5C 132.628,40.4886 130.628,39.6552 128.5,39C 129.759,38.0766 131.092,37.2432 132.5,36.5C 130.276,35.2199 128.276,35.5532 126.5,37.5C 124.167,36.3333 121.833,35.1667 119.5,34C 121.228,32.2745 123.228,30.9411 125.5,30C 131.634,28.7923 137.634,27.6256 143.5,26.5C 152.498,26.1192 161.498,25.7859 170.5,25.5 Z"/></g>
<g><path style="opacity:0.953" fill="#f3e64e" d="M 172.5,25.5 C 181.867,26.1662 191.2,28.1662 200.5,31.5C 197.713,32.4767 194.713,32.81 191.5,32.5C 188.118,31.1729 184.785,29.5062 181.5,27.5C 178.435,26.9359 175.435,26.2692 172.5,25.5 Z"/></g>
<g><path style="opacity:1" fill="#fae512" d="M 200.5,31.5 C 206.954,34.227 213.288,37.227 219.5,40.5C 219.238,41.9778 219.571,43.3112 220.5,44.5C 226.783,46.6273 232.116,50.1273 236.5,55C 235.526,57.6645 234.859,57.8312 234.5,55.5C 231.682,52.0918 228.682,51.9251 225.5,55C 223.08,55.9149 221.747,55.0815 221.5,52.5C 224.74,47.8717 223.406,45.705 217.5,46C 216.789,44.7453 215.956,43.5786 215,42.5C 213.933,43.1905 212.766,43.6905 211.5,44C 213.878,44.9745 213.544,45.6411 210.5,46C 211.308,46.3076 211.975,46.8076 212.5,47.5C 210.577,48.3078 208.577,48.8078 206.5,49C 209.289,49.2414 211.956,49.908 214.5,51C 213.3,52.0312 211.966,52.8645 210.5,53.5C 208.483,51.2745 205.65,49.2745 202,47.5C 201.333,48.1667 200.667,48.8333 200,49.5C 199.23,48.4019 198.397,48.4019 197.5,49.5C 190.81,45.7356 183.81,44.4023 176.5,45.5C 175.833,45.5 175.5,45.1667 175.5,44.5C 175.209,43.3509 174.376,42.6842 173,42.5C 169.65,42.0542 166.483,41.3875 163.5,40.5C 166.448,40.7771 169.281,40.4438 172,39.5C 175.551,41.6798 179.385,42.5132 183.5,42C 182.833,41.6667 182.167,41.3333 181.5,41C 182.833,40.3333 183.833,39.3333 184.5,38C 186.577,37.8078 188.577,37.3078 190.5,36.5C 186.431,34.2186 186.764,32.8853 191.5,32.5C 194.713,32.81 197.713,32.4767 200.5,31.5 Z"/></g>
<g><path style="opacity:1" fill="#fae70e" d="M 143.5,26.5 C 137.634,27.6256 131.634,28.7923 125.5,30C 123.228,30.9411 121.228,32.2745 119.5,34C 121.833,35.1667 124.167,36.3333 126.5,37.5C 128.276,35.5532 130.276,35.2199 132.5,36.5C 131.092,37.2432 129.759,38.0766 128.5,39C 130.628,39.6552 132.628,40.4886 134.5,41.5C 129.68,42.4865 124.68,43.1532 119.5,43.5C 118.733,42.828 118.066,41.9947 117.5,41C 115.744,40.7978 114.078,40.2978 112.5,39.5C 113.885,38.4495 114.885,37.1161 115.5,35.5C 112.473,34.7508 109.473,34.0841 106.5,33.5C 110.111,31.6828 113.778,30.0161 117.5,28.5C 125.985,26.9264 134.652,26.2597 143.5,26.5 Z"/></g>
<g><path style="opacity:1" fill="#f7e945" d="M 163.5,40.5 C 166.483,41.3875 169.65,42.0542 173,42.5C 174.376,42.6842 175.209,43.3509 175.5,44.5C 164.876,43.0046 154.21,42.5046 143.5,43C 131.581,44.397 119.914,46.897 108.5,50.5C 109.694,49.7281 110.694,48.7281 111.5,47.5C 114.072,46.0715 116.739,44.7382 119.5,43.5C 124.68,43.1532 129.68,42.4865 134.5,41.5C 144.146,40.7131 153.812,40.3798 163.5,40.5 Z"/></g>
<g><path style="opacity:0.886" fill="#f4eb52" d="M 176.5,45.5 C 183.81,44.4023 190.81,45.7356 197.5,49.5C 200.269,50.9722 203.269,52.1389 206.5,53C 208.063,53.7589 209.063,54.9256 209.5,56.5C 198.978,51.4057 187.978,47.739 176.5,45.5 Z"/></g>
<g><path style="opacity:1" fill="#fbe60b" d="M 234.5,55.5 C 232.896,56.287 232.229,57.6203 232.5,59.5C 228.993,59.3067 225.66,59.9733 222.5,61.5C 219.341,60.8445 216.841,59.1779 215,56.5C 213.374,56.8541 211.541,56.8541 209.5,56.5C 209.063,54.9256 208.063,53.7589 206.5,53C 203.269,52.1389 200.269,50.9722 197.5,49.5C 198.397,48.4019 199.23,48.4019 200,49.5C 200.667,48.8333 201.333,48.1667 202,47.5C 205.65,49.2745 208.483,51.2745 210.5,53.5C 211.966,52.8645 213.3,52.0312 214.5,51C 211.956,49.908 209.289,49.2414 206.5,49C 208.577,48.8078 210.577,48.3078 212.5,47.5C 211.975,46.8076 211.308,46.3076 210.5,46C 213.544,45.6411 213.878,44.9745 211.5,44C 212.766,43.6905 213.933,43.1905 215,42.5C 215.956,43.5786 216.789,44.7453 217.5,46C 223.406,45.705 224.74,47.8717 221.5,52.5C 221.747,55.0815 223.08,55.9149 225.5,55C 228.682,51.9251 231.682,52.0918 234.5,55.5 Z"/></g>
<g><path style="opacity:1" fill="#fce307" d="M 106.5,33.5 C 109.473,34.0841 112.473,34.7508 115.5,35.5C 114.885,37.1161 113.885,38.4495 112.5,39.5C 114.078,40.2978 115.744,40.7978 117.5,41C 118.066,41.9947 118.733,42.828 119.5,43.5C 116.739,44.7382 114.072,46.0715 111.5,47.5C 108.813,47.3359 106.146,47.5026 103.5,48C 104.258,49.3639 103.758,50.5305 102,51.5C 101.586,51.0426 101.086,50.7093 100.5,50.5C 97.3515,52.3439 94.1848,54.0105 91,55.5C 88.5183,54.3764 88.0183,52.7097 89.5,50.5C 88.1502,49.0499 86.4835,48.3832 84.5,48.5C 85.0485,45.6107 86.8818,43.944 90,43.5C 95.0586,43.8025 100.225,43.8025 105.5,43.5C 104.609,42.4104 103.609,42.4104 102.5,43.5C 101.101,41.8967 99.4347,40.5634 97.5,39.5C 98.7161,38.9041 100.049,38.7374 101.5,39C 103.59,37.4115 105.257,35.5782 106.5,33.5 Z"/></g>
<g><path style="opacity:0.243" fill="#eae05c" d="M 108.5,50.5 C 104.818,53.0078 100.818,55.0078 96.5,56.5C 99.6787,53.0231 103.679,51.0231 108.5,50.5 Z"/></g>
<g><path style="opacity:1" fill="#f8e622" d="M 117.5,28.5 C 113.778,30.0161 110.111,31.6828 106.5,33.5C 105.257,35.5782 103.59,37.4115 101.5,39C 100.049,38.7374 98.7161,38.9041 97.5,39.5C 99.4347,40.5634 101.101,41.8967 102.5,43.5C 103.609,42.4104 104.609,42.4104 105.5,43.5C 100.225,43.8025 95.0586,43.8025 90,43.5C 86.8818,43.944 85.0485,45.6107 84.5,48.5C 86.4835,48.3832 88.1502,49.0499 89.5,50.5C 88.0183,52.7097 88.5183,54.3764 91,55.5C 94.1848,54.0105 97.3515,52.3439 100.5,50.5C 101.086,50.7093 101.586,51.0426 102,51.5C 103.758,50.5305 104.258,49.3639 103.5,48C 106.146,47.5026 108.813,47.3359 111.5,47.5C 110.694,48.7281 109.694,49.7281 108.5,50.5C 103.679,51.0231 99.6787,53.0231 96.5,56.5C 91.8415,59.4969 87.1748,62.4969 82.5,65.5C 81.9569,65.56 81.6236,65.8933 81.5,66.5C 83.1431,69.4451 84.4764,72.4451 85.5,75.5C 81.8869,73.3721 79.5536,70.2054 78.5,66C 78.8919,64.9895 79.5585,64.4895 80.5,64.5C 79.1667,63.5 79.1667,62.5 80.5,61.5C 78.5112,61.4681 76.5112,60.6347 74.5,59C 75.6667,57.8333 76.8333,56.6667 78,55.5C 78.6123,53.7627 77.9457,52.7627 76,52.5C 74.6693,53.9958 73.1693,55.3291 71.5,56.5C 71.3062,58.0701 71.3062,59.5701 71.5,61C 71,61.5 70.5,62 70,62.5C 67.1699,62.6702 64.0033,62.6702 60.5,62.5C 63.1444,59.5198 65.811,56.5198 68.5,53.5C 82.6908,41.2368 99.0241,32.9035 117.5,28.5 Z"/></g>
<g><path style="opacity:0.078" fill="#e8da5b" d="M 183.5,55.5 C 182.903,56.1386 182.07,56.472 181,56.5C 176.733,55.3552 172.567,54.3552 168.5,53.5C 168.917,52.8761 169.584,52.5427 170.5,52.5C 174.811,53.6615 179.145,54.6615 183.5,55.5 Z"/></g>
<g><path style="opacity:1" fill="#fce305" d="M 85.5,75.5 C 86.8333,75.8333 88.1667,76.1667 89.5,76.5C 89.6106,78.6477 88.944,78.981 87.5,77.5C 83.8373,80.4135 81.1706,79.5802 79.5,75C 77.8333,74.6667 76.1667,74.3333 74.5,74C 75.4231,71.9592 75.7564,69.7925 75.5,67.5C 72.4596,69.043 69.4596,69.7097 66.5,69.5C 63.428,68.0941 61.428,65.7607 60.5,62.5C 64.0033,62.6702 67.1699,62.6702 70,62.5C 70.5,62 71,61.5 71.5,61C 71.3062,59.5701 71.3062,58.0701 71.5,56.5C 73.1693,55.3291 74.6693,53.9958 76,52.5C 77.9457,52.7627 78.6123,53.7627 78,55.5C 76.8333,56.6667 75.6667,57.8333 74.5,59C 76.5112,60.6347 78.5112,61.4681 80.5,61.5C 79.1667,62.5 79.1667,63.5 80.5,64.5C 79.5585,64.4895 78.8919,64.9895 78.5,66C 79.5536,70.2054 81.8869,73.3721 85.5,75.5 Z"/></g>
<g><path style="opacity:1" fill="#fce40a" d="M 201.5,63.5 C 202.672,65.539 204.338,66.8724 206.5,67.5C 204.31,68.3745 203.31,70.0411 203.5,72.5C 204.822,72.33 205.989,72.6634 207,73.5C 207.336,76.4755 207.169,79.1422 206.5,81.5C 204.482,80.6981 202.482,79.1981 200.5,77C 199.101,76.4054 197.768,76.5721 196.5,77.5C 194.677,76.2528 192.677,75.5861 190.5,75.5C 189.325,75.719 188.325,75.3857 187.5,74.5C 188.504,72.3227 187.838,71.9893 185.5,73.5C 175.519,69.4868 165.186,67.3202 154.5,67C 154.833,67.3333 155.167,67.6667 155.5,68C 152.905,68.2256 150.405,68.7256 148,69.5C 147.275,68.9415 146.442,68.6082 145.5,68.5C 141.404,69.251 137.404,70.251 133.5,71.5C 131.679,70.8826 129.679,70.716 127.5,71C 127.833,70.6667 128.167,70.3333 128.5,70C 127.773,68.6012 127.273,67.1012 127,65.5C 125.509,67.0037 123.676,67.8371 121.5,68C 122.505,69.5067 123.838,70.6733 125.5,71.5C 124.934,72.2913 124.101,72.2913 123,71.5C 120.467,74.3838 117.467,75.0505 114,73.5C 111.142,74.5725 108.309,75.5725 105.5,76.5C 105.167,76.3333 104.833,76.1667 104.5,76C 108.641,70.7004 113.974,69.0337 120.5,71C 119.207,70.51 117.873,70.3433 116.5,70.5C 116.5,69.5 116.5,68.5 116.5,67.5C 114.436,67.313 112.436,66.813 110.5,66C 109.748,65.3292 109.414,64.4959 109.5,63.5C 112.903,60.6749 116.569,58.3416 120.5,56.5C 120.5,55.8333 120.833,55.5 121.5,55.5C 122.793,56.1582 124.293,56.4915 126,56.5C 137.926,54.9418 149.926,53.9418 162,53.5C 169.174,55.4356 176.341,57.4356 183.5,59.5C 184.554,59.3201 185.554,58.9867 186.5,58.5C 189.124,61.1076 192.124,63.1076 195.5,64.5C 196.167,63.8333 196.833,63.1667 197.5,62.5C 198.736,63.2458 200.07,63.5792 201.5,63.5 Z"/></g>
<g><path style="opacity:1" fill="#f4e940" d="M 219.5,40.5 C 226.662,43.8268 233.162,48.1601 239,53.5C 239.667,54.5 239.667,55.5 239,56.5C 235.288,60.5481 231.288,64.2148 227,67.5C 220.866,64.19 215.033,60.5234 209.5,56.5C 211.541,56.8541 213.374,56.8541 215,56.5C 216.841,59.1779 219.341,60.8445 222.5,61.5C 225.66,59.9733 228.993,59.3067 232.5,59.5C 232.229,57.6203 232.896,56.287 234.5,55.5C 234.859,57.8312 235.526,57.6645 236.5,55C 232.116,50.1273 226.783,46.6273 220.5,44.5C 219.571,43.3112 219.238,41.9778 219.5,40.5 Z"/></g>
<g><path style="opacity:1" fill="#f6e744" d="M 168.5,53.5 C 172.567,54.3552 176.733,55.3552 181,56.5C 182.07,56.472 182.903,56.1386 183.5,55.5C 189.857,57.6088 195.857,60.2755 201.5,63.5C 200.07,63.5792 198.736,63.2458 197.5,62.5C 196.833,63.1667 196.167,63.8333 195.5,64.5C 192.124,63.1076 189.124,61.1076 186.5,58.5C 185.554,58.9867 184.554,59.3201 183.5,59.5C 176.341,57.4356 169.174,55.4356 162,53.5C 149.926,53.9418 137.926,54.9418 126,56.5C 124.293,56.4915 122.793,56.1582 121.5,55.5C 135.713,51.802 150.379,50.6353 165.5,52C 166.244,53.0386 167.244,53.5386 168.5,53.5 Z"/></g>
<g><path style="opacity:1" fill="#f4e63d" d="M 190.5,75.5 C 190.5,76.5 190.5,77.5 190.5,78.5C 169.325,69.597 147.658,68.2637 125.5,74.5C 127.902,73.0075 130.569,72.0075 133.5,71.5C 137.404,70.251 141.404,69.251 145.5,68.5C 146.442,68.6082 147.275,68.9415 148,69.5C 150.405,68.7256 152.905,68.2256 155.5,68C 155.167,67.6667 154.833,67.3333 154.5,67C 165.186,67.3202 175.519,69.4868 185.5,73.5C 187.838,71.9893 188.504,72.3227 187.5,74.5C 188.325,75.3857 189.325,75.719 190.5,75.5 Z"/></g>
<g><path style="opacity:1" fill="#f0e436" d="M 68.5,53.5 C 65.811,56.5198 63.1444,59.5198 60.5,62.5C 61.428,65.7607 63.428,68.0941 66.5,69.5C 67.4495,73.3511 69.6162,76.6844 73,79.5C 76.8123,84.2288 75.9789,87.8955 70.5,90.5C 71.2026,88.2843 72.5359,86.451 74.5,85C 67.7888,78.6239 61.4554,71.9572 55.5,65C 59.3392,60.664 63.6725,56.8307 68.5,53.5 Z"/></g>
<g><path style="opacity:1" fill="#f3e53b" d="M 120.5,56.5 C 116.569,58.3416 112.903,60.6749 109.5,63.5C 106.407,65.2153 103.073,66.5486 99.5,67.5C 97.6053,68.973 95.9387,70.6397 94.5,72.5C 92.4706,71.3707 92.1373,71.8707 93.5,74C 92.5291,75.4813 91.1958,76.3146 89.5,76.5C 88.1667,76.1667 86.8333,75.8333 85.5,75.5C 84.4764,72.4451 83.1431,69.4451 81.5,66.5C 81.6236,65.8933 81.9569,65.56 82.5,65.5C 84.4611,67.9635 86.6278,70.2968 89,72.5C 98.3645,64.9858 108.864,59.6525 120.5,56.5 Z"/></g>
<g><path style="opacity:1" fill="#f8e721" d="M 251.5,64.5 C 255.953,68.6117 259.62,73.2783 262.5,78.5C 260.886,77.7286 259.386,76.7286 258,75.5C 256.238,75.9444 256.405,76.4444 258.5,77C 257.552,77.4828 256.552,77.6495 255.5,77.5C 255.179,75.9519 254.179,75.2852 252.5,75.5C 253.592,70.8775 251.925,69.0442 247.5,70C 247.182,72.0419 247.015,74.2086 247,76.5C 246.417,74.9984 245.584,73.6651 244.5,72.5C 243.289,73.2739 243.289,74.1072 244.5,75C 243.335,76.0836 242.002,76.9169 240.5,77.5C 239.571,78.6888 239.238,80.0222 239.5,81.5C 238.883,81.3893 238.383,81.056 238,80.5C 236.328,83.5138 234.328,85.5138 232,86.5C 229.095,84.9068 225.929,83.9068 222.5,83.5C 220.36,80.0227 217.36,77.6894 213.5,76.5C 211.644,79.1897 209.311,81.3563 206.5,83C 209.167,83.6667 209.167,84.3333 206.5,85C 207.354,86.0217 208.354,86.8551 209.5,87.5C 211.518,85.6499 213.351,83.6499 215,81.5C 215.833,82.3333 216.667,83.1667 217.5,84C 215.697,85.262 214.364,86.9287 213.5,89C 215.373,89.9529 215.706,91.1196 214.5,92.5C 213.395,91.3995 212.062,90.7329 210.5,90.5C 204.073,86.0672 197.406,82.0672 190.5,78.5C 190.5,77.5 190.5,76.5 190.5,75.5C 192.677,75.5861 194.677,76.2528 196.5,77.5C 197.768,76.5721 199.101,76.4054 200.5,77C 202.482,79.1981 204.482,80.6981 206.5,81.5C 207.169,79.1422 207.336,76.4755 207,73.5C 205.989,72.6634 204.822,72.33 203.5,72.5C 203.31,70.0411 204.31,68.3745 206.5,67.5C 210.648,70.6758 214.981,73.6758 219.5,76.5C 220.736,77.2458 222.07,77.5792 223.5,77.5C 225.5,78.8333 227.167,80.5 228.5,82.5C 229.251,83.5735 230.251,83.7401 231.5,83C 236.773,76.7242 242.44,70.7242 248.5,65C 249.448,64.5172 250.448,64.3505 251.5,64.5 Z"/></g>
<g><path style="opacity:0.753" fill="#f0e859" d="M 201.5,63.5 C 209.641,66.99 216.975,71.6566 223.5,77.5C 222.07,77.5792 220.736,77.2458 219.5,76.5C 214.981,73.6758 210.648,70.6758 206.5,67.5C 204.338,66.8724 202.672,65.539 201.5,63.5 Z"/></g>
<g><path style="opacity:1" fill="#fce406" d="M 255.5,77.5 C 255.227,79.451 255.893,80.951 257.5,82C 256,82.8333 254.833,84 254,85.5C 253,84.1667 252,84.1667 251,85.5C 250.392,87.1545 249.892,88.8211 249.5,90.5C 248.761,90.631 248.094,90.4643 247.5,90C 248.696,89.3457 248.696,88.8457 247.5,88.5C 246.06,89.9524 244.394,90.9524 242.5,91.5C 241.295,90.3281 241.295,88.9948 242.5,87.5C 241.117,85.6802 240.117,83.6802 239.5,81.5C 239.238,80.0222 239.571,78.6888 240.5,77.5C 242.002,76.9169 243.335,76.0836 244.5,75C 243.289,74.1072 243.289,73.2739 244.5,72.5C 245.584,73.6651 246.417,74.9984 247,76.5C 247.015,74.2086 247.182,72.0419 247.5,70C 251.925,69.0442 253.592,70.8775 252.5,75.5C 254.179,75.2852 255.179,75.9519 255.5,77.5 Z"/></g>
<g><path style="opacity:0.647" fill="#ede665" d="M 54.5,94.5 C 55.1667,92.8333 55.8333,91.1667 56.5,89.5C 56.7678,87.901 56.4345,86.5676 55.5,85.5C 53.3719,82.8697 51.0386,80.3697 48.5,78C 46.5048,77.3872 44.8381,77.8872 43.5,79.5C 44.0312,77.4559 45.1978,75.7893 47,74.5C 51,78.5 55,82.5 59,86.5C 58.8354,89.8214 57.3354,92.4881 54.5,94.5 Z"/></g>
<g><path style="opacity:1" fill="#fbe50d" d="M 109.5,63.5 C 109.414,64.4959 109.748,65.3292 110.5,66C 112.436,66.813 114.436,67.313 116.5,67.5C 116.5,68.5 116.5,69.5 116.5,70.5C 117.873,70.3433 119.207,70.51 120.5,71C 113.974,69.0337 108.641,70.7004 104.5,76C 104.833,76.1667 105.167,76.3333 105.5,76.5C 108.309,75.5725 111.142,74.5725 114,73.5C 117.467,75.0505 120.467,74.3838 123,71.5C 124.101,72.2913 124.934,72.2913 125.5,71.5C 123.838,70.6733 122.505,69.5067 121.5,68C 123.676,67.8371 125.509,67.0037 127,65.5C 127.273,67.1012 127.773,68.6012 128.5,70C 128.167,70.3333 127.833,70.6667 127.5,71C 129.679,70.716 131.679,70.8826 133.5,71.5C 130.569,72.0075 127.902,73.0075 125.5,74.5C 120.37,75.7115 115.37,77.2115 110.5,79C 107.469,81.5081 104.469,84.0081 101.5,86.5C 97.4664,87.9005 93.4664,89.2339 89.5,90.5C 89.8404,92.5476 89.5071,93.5476 88.5,93.5C 88.5,92.5 88.5,91.5 88.5,90.5C 86.1944,90.9926 83.861,91.3259 81.5,91.5C 81.762,92.9778 81.4287,94.3112 80.5,95.5C 80.1667,94.8333 79.8333,94.1667 79.5,93.5C 78.0172,95.9458 76.8505,95.6124 76,92.5C 74.0757,92.6518 72.2424,92.6518 70.5,92.5C 70.5,91.8333 70.5,91.1667 70.5,90.5C 75.9789,87.8955 76.8123,84.2288 73,79.5C 69.6162,76.6844 67.4495,73.3511 66.5,69.5C 69.4596,69.7097 72.4596,69.043 75.5,67.5C 75.7564,69.7925 75.4231,71.9592 74.5,74C 76.1667,74.3333 77.8333,74.6667 79.5,75C 81.1706,79.5802 83.8373,80.4135 87.5,77.5C 88.944,78.981 89.6106,78.6477 89.5,76.5C 91.1958,76.3146 92.5291,75.4813 93.5,74C 92.1373,71.8707 92.4706,71.3707 94.5,72.5C 95.9387,70.6397 97.6053,68.973 99.5,67.5C 103.073,66.5486 106.407,65.2153 109.5,63.5 Z"/></g>
<g><path style="opacity:0.18" fill="#d8cf4c" d="M 251.5,64.5 C 250.448,64.3505 249.448,64.5172 248.5,65C 242.44,70.7242 236.773,76.7242 231.5,83C 230.251,83.7401 229.251,83.5735 228.5,82.5C 234.891,76.6122 241.224,70.4455 247.5,64C 249.066,63.235 250.399,63.4017 251.5,64.5 Z"/></g>
<g><path style="opacity:0.773" fill="#eee353" d="M 125.5,74.5 C 117.26,77.9533 109.26,81.9533 101.5,86.5C 104.469,84.0081 107.469,81.5081 110.5,79C 115.37,77.2115 120.37,75.7115 125.5,74.5 Z"/></g>
<g><path style="opacity:0.078" fill="#eddb60" d="M 182.5,87.5 C 172.899,84.6139 163.066,82.9472 153,82.5C 144.757,82.9158 136.59,83.9158 128.5,85.5C 136.265,82.5546 144.432,81.2212 153,81.5C 163.432,81.2063 173.265,83.2063 182.5,87.5 Z"/></g>
<g><path style="opacity:1" fill="#f5eb3f" d="M 55.5,85.5 C 53.8211,85.1077 52.1545,84.6077 50.5,84C 49.1667,83.3333 49.1667,82.6667 50.5,82C 48.4839,78.985 46.3172,78.8184 44,81.5C 42.004,84.9858 39.8373,88.3191 37.5,91.5C 35.1667,94.1667 32.8333,96.8333 30.5,99.5C 33.8405,92.1429 38.1738,85.4763 43.5,79.5C 44.8381,77.8872 46.5048,77.3872 48.5,78C 51.0386,80.3697 53.3719,82.8697 55.5,85.5 Z"/></g>
<g><path style="opacity:1" fill="#fbe61a" d="M 262.5,78.5 C 268.747,85.1073 273.413,92.7739 276.5,101.5C 272.304,101.658 270.137,99.6577 270,95.5C 268.617,99.0878 267.451,102.754 266.5,106.5C 264.45,105.923 263.45,104.59 263.5,102.5C 262.448,102.649 261.448,102.483 260.5,102C 263.993,100.912 264.159,99.745 261,98.5C 260.617,99.056 260.117,99.3893 259.5,99.5C 256.142,96.4942 252.808,93.4942 249.5,90.5C 249.892,88.8211 250.392,87.1545 251,85.5C 252,84.1667 253,84.1667 254,85.5C 254.833,84 256,82.8333 257.5,82C 255.893,80.951 255.227,79.451 255.5,77.5C 256.552,77.6495 257.552,77.4828 258.5,77C 256.405,76.4444 256.238,75.9444 258,75.5C 259.386,76.7286 260.886,77.7286 262.5,78.5 Z"/></g>
<g><path style="opacity:1" fill="#fbe30a" d="M 55.5,85.5 C 56.4345,86.5676 56.7678,87.901 56.5,89.5C 54.2125,90.6187 52.3792,92.2853 51,94.5C 49.7191,99.7284 47.3858,104.395 44,108.5C 43.9566,105.783 42.9566,105.116 41,106.5C 37.4922,104.762 36.9922,102.596 39.5,100C 39.0496,98.7147 38.3829,97.548 37.5,96.5C 38.5353,94.8716 38.5353,93.205 37.5,91.5C 39.8373,88.3191 42.004,84.9858 44,81.5C 46.3172,78.8184 48.4839,78.985 50.5,82C 49.1667,82.6667 49.1667,83.3333 50.5,84C 52.1545,84.6077 53.8211,85.1077 55.5,85.5 Z"/></g>
<g><path style="opacity:1" fill="#fce407" d="M 106.5,119.5 C 104.62,119.229 103.287,119.896 102.5,121.5C 100.983,121.489 99.8159,120.823 99,119.5C 97.8604,116.898 97.0271,114.231 96.5,111.5C 98.5824,111.528 100.416,110.861 102,109.5C 102.333,109.833 102.667,110.167 103,110.5C 103.613,108.505 103.113,106.838 101.5,105.5C 103.481,102.092 106.148,99.2589 109.5,97C 111.808,96.0093 114.141,95.176 116.5,94.5C 122.271,92.1153 127.937,89.4486 133.5,86.5C 134.91,86.8678 135.91,87.7011 136.5,89C 137.5,89.6667 138.5,89.6667 139.5,89C 138.167,87.1598 138.334,86.6598 140,87.5C 140.5,86.3333 141.333,85.5 142.5,85C 148.167,84.3333 153.833,84.3333 159.5,85C 162.377,85.9562 165.044,87.2895 167.5,89C 163.128,89.4215 158.795,90.0881 154.5,91C 158.486,91.4988 162.486,91.6655 166.5,91.5C 166.845,94.488 165.512,95.8213 162.5,95.5C 151.326,94.2614 140.326,93.7614 129.5,94C 127.947,95.0968 126.614,96.4301 125.5,98C 126.672,98.3534 127.838,98.1868 129,97.5C 130.608,97.9739 130.774,98.6406 129.5,99.5C 124.812,101.074 121.145,103.907 118.5,108C 115.978,109.341 113.311,110.174 110.5,110.5C 110.55,112.59 109.55,113.923 107.5,114.5C 106.548,116.045 106.215,117.712 106.5,119.5 Z"/></g>
<g><path style="opacity:1" fill="#fce40a" d="M 239.5,81.5 C 240.117,83.6802 241.117,85.6802 242.5,87.5C 241.295,88.9948 241.295,90.3281 242.5,91.5C 242.5,92.1667 242.5,92.8333 242.5,93.5C 241.542,93.9528 240.708,94.6195 240,95.5C 239.333,99.1667 239.333,102.833 240,106.5C 241.87,108.248 243.037,110.415 243.5,113C 242.134,115.382 242.467,117.548 244.5,119.5C 245.524,118.147 246.857,117.48 248.5,117.5C 249.954,121.702 249.454,125.702 247,129.5C 246.29,128.027 245.124,127.36 243.5,127.5C 242.5,127.5 241.5,127.5 240.5,127.5C 240.261,125.533 240.594,123.699 241.5,122C 237.436,119.572 234.102,116.406 231.5,112.5C 226.613,105.271 220.946,98.6043 214.5,92.5C 215.706,91.1196 215.373,89.9529 213.5,89C 214.364,86.9287 215.697,85.262 217.5,84C 216.667,83.1667 215.833,82.3333 215,81.5C 213.351,83.6499 211.518,85.6499 209.5,87.5C 208.354,86.8551 207.354,86.0217 206.5,85C 209.167,84.3333 209.167,83.6667 206.5,83C 209.311,81.3563 211.644,79.1897 213.5,76.5C 217.36,77.6894 220.36,80.0227 222.5,83.5C 225.929,83.9068 229.095,84.9068 232,86.5C 234.328,85.5138 236.328,83.5138 238,80.5C 238.383,81.056 238.883,81.3893 239.5,81.5 Z"/></g>
<g><path style="opacity:0.6" fill="#ded44d" d="M 210.5,90.5 C 212.062,90.7329 213.395,91.3995 214.5,92.5C 220.946,98.6043 226.613,105.271 231.5,112.5C 231.833,113.833 232.167,115.167 232.5,116.5C 229.53,112.68 226.696,108.68 224,104.5C 219.297,99.9645 214.797,95.2979 210.5,90.5 Z"/></g>
<g><path style="opacity:1" fill="#f9e61d" d="M 182.5,87.5 C 188.396,89.1146 193.729,91.7812 198.5,95.5C 198.351,96.552 198.517,97.552 199,98.5C 200.586,99.376 202.086,100.376 203.5,101.5C 203.121,103.213 202.121,104.213 200.5,104.5C 201.839,101.778 200.839,100.111 197.5,99.5C 196.155,100.347 195.155,101.513 194.5,103C 194.79,104.639 195.624,106.139 197,107.5C 194.126,105.109 192.626,105.442 192.5,108.5C 195.595,108.626 197.428,110.293 198,113.5C 200.792,114.915 202.292,117.249 202.5,120.5C 203.723,121.614 205.056,121.781 206.5,121C 205.377,117.944 206.044,117.778 208.5,120.5C 208.709,121.086 209.043,121.586 209.5,122C 208.139,123.584 207.472,125.418 207.5,127.5C 209.124,127.36 210.29,128.027 211,129.5C 211.853,127.875 212.853,127.542 214,128.5C 216.151,131.216 215.984,133.716 213.5,136C 215.107,137.049 215.773,138.549 215.5,140.5C 216.898,146.223 218.231,152.056 219.5,158C 218.167,160.333 218.167,162.667 219.5,165C 219.101,166.981 218.101,168.481 216.5,169.5C 216.666,163.491 216.499,157.491 216,151.5C 215.428,147.837 214.262,144.503 212.5,141.5C 211.833,141.5 211.5,141.167 211.5,140.5C 212.105,137.082 211.271,133.749 209,130.5C 208.329,129.748 207.496,129.414 206.5,129.5C 203.199,123.874 199.199,118.874 194.5,114.5C 191.37,105.743 185.037,101.743 175.5,102.5C 173.239,100.745 170.572,99.5784 167.5,99C 157.205,96.6404 147.205,97.1404 137.5,100.5C 133.236,100.477 129.569,101.81 126.5,104.5C 119.292,108.699 112.625,113.699 106.5,119.5C 106.215,117.712 106.548,116.045 107.5,114.5C 109.55,113.923 110.55,112.59 110.5,110.5C 113.311,110.174 115.978,109.341 118.5,108C 121.145,103.907 124.812,101.074 129.5,99.5C 130.774,98.6406 130.608,97.9739 129,97.5C 127.838,98.1868 126.672,98.3534 125.5,98C 126.614,96.4301 127.947,95.0968 129.5,94C 140.326,93.7614 151.326,94.2614 162.5,95.5C 165.512,95.8213 166.845,94.488 166.5,91.5C 162.486,91.6655 158.486,91.4988 154.5,91C 158.795,90.0881 163.128,89.4215 167.5,89C 165.044,87.2895 162.377,85.9562 159.5,85C 153.833,84.3333 148.167,84.3333 142.5,85C 141.333,85.5 140.5,86.3333 140,87.5C 138.334,86.6598 138.167,87.1598 139.5,89C 138.5,89.6667 137.5,89.6667 136.5,89C 135.91,87.7011 134.91,86.8678 133.5,86.5C 127.937,89.4486 122.271,92.1153 116.5,94.5C 120.51,91.497 124.51,88.497 128.5,85.5C 136.59,83.9158 144.757,82.9158 153,82.5C 163.066,82.9472 172.899,84.6139 182.5,87.5 Z"/></g>
<g><path style="opacity:0.404" fill="#ecdc46" d="M 175.5,102.5 C 162.987,99.3961 150.321,98.7294 137.5,100.5C 147.205,97.1404 157.205,96.6404 167.5,99C 170.572,99.5784 173.239,100.745 175.5,102.5 Z"/></g>
<g><path style="opacity:1" fill="#f1e545" d="M 249.5,90.5 C 252.808,93.4942 256.142,96.4942 259.5,99.5C 259.196,100.15 258.863,100.817 258.5,101.5C 260.144,105.417 261.478,109.417 262.5,113.5C 258.821,105.982 254.487,98.8148 249.5,92C 248.833,91.3333 248.167,91.3333 247.5,92C 245.76,93.517 244.094,95.017 242.5,96.5C 242.5,95.5 242.5,94.5 242.5,93.5C 242.5,92.8333 242.5,92.1667 242.5,91.5C 244.394,90.9524 246.06,89.9524 247.5,88.5C 248.696,88.8457 248.696,89.3457 247.5,90C 248.094,90.4643 248.761,90.631 249.5,90.5 Z"/></g>
<g><path style="opacity:0.902" fill="#f1e64b" d="M 70.5,90.5 C 70.5,91.1667 70.5,91.8333 70.5,92.5C 68.9128,95.2682 67.0795,97.9348 65,100.5C 63.7292,101.883 62.2292,102.883 60.5,103.5C 61.8089,100.222 63.6422,97.2223 66,94.5C 67.3712,92.9586 68.8712,91.6253 70.5,90.5 Z"/></g>
<g><path style="opacity:1" fill="#faea22" d="M 56.5,89.5 C 55.8333,91.1667 55.1667,92.8333 54.5,94.5C 49.9533,102.26 45.9533,110.26 42.5,118.5C 40.7945,120.612 39.4611,122.945 38.5,125.5C 37.3369,122.264 37.6703,119.097 39.5,116C 36.8429,113.038 35.3429,109.538 35,105.5C 34.3333,104.167 33.3333,103.167 32,102.5C 31.1841,103.823 30.0174,104.489 28.5,104.5C 28.4021,102.447 29.0687,100.78 30.5,99.5C 32.8333,96.8333 35.1667,94.1667 37.5,91.5C 38.5353,93.205 38.5353,94.8716 37.5,96.5C 38.3829,97.548 39.0496,98.7147 39.5,100C 36.9922,102.596 37.4922,104.762 41,106.5C 42.9566,105.116 43.9566,105.783 44,108.5C 47.3858,104.395 49.7191,99.7284 51,94.5C 52.3792,92.2853 54.2125,90.6187 56.5,89.5 Z"/></g>
<g><path style="opacity:0.161" fill="#dece57" d="M 137.5,100.5 C 134.018,102.062 130.352,103.395 126.5,104.5C 129.569,101.81 133.236,100.477 137.5,100.5 Z"/></g>
<g><path style="opacity:1" fill="#fbe40a" d="M 88.5,93.5 C 84.9637,94.9694 82.1304,97.3027 80,100.5C 79.3333,99.1667 78.6667,99.1667 78,100.5C 78.2532,103.133 78.2532,105.8 78,108.5C 76.9887,107.663 75.8221,107.33 74.5,107.5C 74.7406,109.898 74.0739,111.898 72.5,113.5C 69.4804,112.779 67.3137,114.112 66,117.5C 63.7729,113.201 61.9396,113.034 60.5,117C 61.0172,119.077 61.6839,121.077 62.5,123C 60.0039,124.554 57.8372,126.387 56,128.5C 54.1739,127.99 54.0072,127.156 55.5,126C 54.552,125.517 53.552,125.351 52.5,125.5C 52.9175,124.778 53.5842,124.278 54.5,124C 52.8934,122.951 52.2267,121.451 52.5,119.5C 54.3428,118.754 55.6761,117.421 56.5,115.5C 57.3095,111.24 58.6428,107.24 60.5,103.5C 62.2292,102.883 63.7292,101.883 65,100.5C 67.0795,97.9348 68.9128,95.2682 70.5,92.5C 72.2424,92.6518 74.0757,92.6518 76,92.5C 76.8505,95.6124 78.0172,95.9458 79.5,93.5C 79.8333,94.1667 80.1667,94.8333 80.5,95.5C 81.4287,94.3112 81.762,92.9778 81.5,91.5C 83.861,91.3259 86.1944,90.9926 88.5,90.5C 88.5,91.5 88.5,92.5 88.5,93.5 Z"/></g>
<g><path style="opacity:0.953" fill="#f4e93f" d="M 128.5,85.5 C 124.51,88.497 120.51,91.497 116.5,94.5C 114.141,95.176 111.808,96.0093 109.5,97C 106.148,99.2589 103.481,102.092 101.5,105.5C 96.856,108.478 92.856,112.145 89.5,116.5C 87.2205,121.413 84.2205,125.746 80.5,129.5C 82.1588,124.173 84.8255,119.507 88.5,115.5C 93.4721,110.193 98.4721,104.86 103.5,99.5C 104.29,98.2058 105.29,97.0391 106.5,96C 113.265,91.2484 120.598,87.7484 128.5,85.5 Z"/></g>
<g><path style="opacity:1" fill="#f2e83f" d="M 175.5,102.5 C 185.037,101.743 191.37,105.743 194.5,114.5C 188.637,109.736 182.303,105.736 175.5,102.5 Z"/></g>
<g><path style="opacity:0.396" fill="#dbd14e" d="M 103.5,99.5 C 98.4721,104.86 93.4721,110.193 88.5,115.5C 92.1178,108.882 97.1178,103.548 103.5,99.5 Z"/></g>
<g><path style="opacity:0.996" fill="#f6eb4f" d="M 60.5,103.5 C 58.6428,107.24 57.3095,111.24 56.5,115.5C 55.6761,117.421 54.3428,118.754 52.5,119.5C 54.1318,113.57 56.7985,108.236 60.5,103.5 Z"/></g>
<g><path style="opacity:0.867" fill="#f7ed49" d="M 198.5,95.5 C 212.591,105.348 222.591,118.348 228.5,134.5C 225.462,132.112 223.129,129.112 221.5,125.5C 219.944,122.264 217.944,119.264 215.5,116.5C 214.702,114.922 214.202,113.256 214,111.5C 210.833,111 209,109.167 208.5,106C 205.793,103.928 203.627,104.428 202,107.5C 201.487,106.473 200.987,105.473 200.5,104.5C 202.121,104.213 203.121,103.213 203.5,101.5C 202.086,100.376 200.586,99.376 199,98.5C 198.517,97.552 198.351,96.552 198.5,95.5 Z"/></g>
<g><path style="opacity:1" fill="#f8ef4b" d="M 243.5,98.5 C 252.192,110.887 257.858,124.554 260.5,139.5C 258.377,134.411 256.211,129.077 254,123.5C 253.163,121.156 251.829,119.156 250,117.5C 249.452,111.626 247.119,106.626 243,102.5C 242.235,100.934 242.402,99.6009 243.5,98.5 Z"/></g>
<g><path style="opacity:0.902" fill="#f9f240" d="M 276.5,101.5 C 281.598,110.123 284.932,119.457 286.5,129.5C 281.066,121.225 277.733,111.891 276.5,101.5 Z"/></g>
<g><path style="opacity:1" fill="#fbe506" d="M 72.5,113.5 C 70.8032,117.265 69.4699,121.265 68.5,125.5C 67.1667,125.5 65.8333,125.5 64.5,125.5C 62.077,134.9 59.7437,144.567 57.5,154.5C 58.8566,151.002 58.1899,147.835 55.5,145C 56.3295,143.535 56.4962,142.035 56,140.5C 55.3333,139.167 54.6667,139.167 54,140.5C 53.5172,141.448 53.3505,142.448 53.5,143.5C 52.1667,143.5 50.8333,143.5 49.5,143.5C 49.3713,141.784 49.038,140.117 48.5,138.5C 50.5937,136.449 50.927,134.116 49.5,131.5C 50.5195,129.396 51.5195,127.396 52.5,125.5C 53.552,125.351 54.552,125.517 55.5,126C 54.0072,127.156 54.1739,127.99 56,128.5C 57.8372,126.387 60.0039,124.554 62.5,123C 61.6839,121.077 61.0172,119.077 60.5,117C 61.9396,113.034 63.7729,113.201 66,117.5C 67.3137,114.112 69.4804,112.779 72.5,113.5 Z"/></g>
<g><path style="opacity:1" fill="#f9e51d" d="M 101.5,105.5 C 103.113,106.838 103.613,108.505 103,110.5C 102.667,110.167 102.333,109.833 102,109.5C 100.416,110.861 98.5824,111.528 96.5,111.5C 97.0271,114.231 97.8604,116.898 99,119.5C 99.8159,120.823 100.983,121.489 102.5,121.5C 101.199,122.882 100.366,124.548 100,126.5C 98.9887,127.337 97.8221,127.67 96.5,127.5C 96.1783,131.975 94.5116,135.808 91.5,139C 92.4231,141.041 92.7564,143.208 92.5,145.5C 91.7784,145.918 91.2784,146.584 91,147.5C 90.1416,154.981 89.3083,162.314 88.5,169.5C 87.7556,164.758 86.7556,159.925 85.5,155C 87.7944,150.787 89.1278,146.454 89.5,142C 86.365,139.367 83.365,136.533 80.5,133.5C 79.2393,137.061 78.406,140.728 78,144.5C 77.6667,144.167 77.3333,143.833 77,143.5C 76.6227,147.019 76.1227,150.519 75.5,154C 76.2395,160.809 76.7395,167.643 77,174.5C 77.7096,175.973 78.8762,176.64 80.5,176.5C 80.1826,179.572 80.5159,182.572 81.5,185.5C 84.5951,186.868 85.2617,189.034 83.5,192C 85.4342,195.751 87.1009,199.585 88.5,203.5C 87.5416,203.047 86.7083,202.381 86,201.5C 85.5744,197.776 83.7411,195.11 80.5,193.5C 78.4622,186.401 76.4622,179.401 74.5,172.5C 71.8337,157.54 73.8337,143.207 80.5,129.5C 84.2205,125.746 87.2205,121.413 89.5,116.5C 92.856,112.145 96.856,108.478 101.5,105.5 Z"/></g>
<g><path style="opacity:1" fill="#fbe511" d="M 276.5,101.5 C 277.733,111.891 281.066,121.225 286.5,129.5C 288.189,133.903 289.355,138.569 290,143.5C 290.311,149.186 290.811,154.853 291.5,160.5C 291.48,161.726 291.147,162.726 290.5,163.5C 289.778,163.918 289.278,164.584 289,165.5C 288.622,173.848 288.122,182.181 287.5,190.5C 286.624,190.369 285.957,190.702 285.5,191.5C 284.95,193.657 284.283,195.657 283.5,197.5C 282.409,194.651 282.409,191.818 283.5,189C 281.387,183.581 279.554,178.081 278,172.5C 277.673,179.161 276.673,185.828 275,192.5C 274.333,193.833 273.667,193.833 273,192.5C 272.195,194.901 271.362,194.734 270.5,192C 272.354,189.457 273.521,186.624 274,183.5C 275.674,169.99 275.174,156.657 272.5,143.5C 271.719,132.49 268.386,122.49 262.5,113.5C 261.478,109.417 260.144,105.417 258.5,101.5C 258.863,100.817 259.196,100.15 259.5,99.5C 260.117,99.3893 260.617,99.056 261,98.5C 264.159,99.745 263.993,100.912 260.5,102C 261.448,102.483 262.448,102.649 263.5,102.5C 263.45,104.59 264.45,105.923 266.5,106.5C 267.451,102.754 268.617,99.0878 270,95.5C 270.137,99.6577 272.304,101.658 276.5,101.5 Z"/></g>
<g><path style="opacity:0.949" fill="#ece14a" d="M 194.5,129.5 C 191.408,126.069 187.908,123.069 184,120.5C 181.031,122.371 180.697,124.704 183,127.5C 186.481,129.601 189.481,132.268 192,135.5C 194.91,134.55 196.077,132.55 195.5,129.5C 197.9,131.581 198.066,133.914 196,136.5C 193.936,137.591 191.769,137.758 189.5,137C 185.978,132.481 182.145,128.315 178,124.5C 178.237,117.299 181.403,115.799 187.5,120C 190.888,122.531 193.221,125.698 194.5,129.5 Z"/></g>
<g><path style="opacity:1" fill="#fbe60f" d="M 38.5,125.5 C 37.2304,130.773 36.0637,136.106 35,141.5C 34.1925,145.027 34.3592,148.36 35.5,151.5C 35.6716,152.492 35.3382,153.158 34.5,153.5C 33.1803,156.428 32.5136,159.761 32.5,163.5C 33.0067,171.189 33.6734,178.855 34.5,186.5C 30.9024,172.22 30.5691,157.72 33.5,143C 32.9428,139.641 32.6095,136.475 32.5,133.5C 33.6313,132.396 34.4646,132.729 35,134.5C 35.7805,133.056 35.6139,131.723 34.5,130.5C 33.1667,131.833 31.8333,131.833 30.5,130.5C 29.1936,131.912 28.3603,133.579 28,135.5C 24.5,136.333 22.3333,138.5 21.5,142C 22.9999,143.115 24.6666,143.948 26.5,144.5C 27.8333,149.167 27.8333,153.833 26.5,158.5C 25.6764,155.215 25.1764,151.882 25,148.5C 23.108,149.13 21.4413,150.13 20,151.5C 19.8333,154.667 19.6667,157.833 19.5,161C 19.5501,164.603 20.2168,167.936 21.5,171C 20.8333,171.333 20.1667,171.667 19.5,172C 20.9967,175.788 21.33,179.621 20.5,183.5C 20.6567,184.873 20.49,186.207 20,187.5C 18.2108,183.656 18.0441,179.656 19.5,175.5C 18.7963,167.829 18.1296,160.162 17.5,152.5C 17.5,151.5 17.5,150.5 17.5,149.5C 18.1174,149.389 18.6174,149.056 19,148.5C 19.469,142.81 20.1357,137.143 21,131.5C 23.4462,122.408 25.9462,113.408 28.5,104.5C 30.0174,104.489 31.1841,103.823 32,102.5C 33.3333,103.167 34.3333,104.167 35,105.5C 35.3429,109.538 36.8429,113.038 39.5,116C 37.6703,119.097 37.3369,122.264 38.5,125.5 Z"/></g>
<g><path style="opacity:1" fill="#fbe50b" d="M 242.5,93.5 C 242.5,94.5 242.5,95.5 242.5,96.5C 242.833,97.1667 243.167,97.8333 243.5,98.5C 242.402,99.6009 242.235,100.934 243,102.5C 247.119,106.626 249.452,111.626 250,117.5C 251.829,119.156 253.163,121.156 254,123.5C 256.211,129.077 258.377,134.411 260.5,139.5C 260.376,145.069 261.043,150.402 262.5,155.5C 262.629,157.216 262.962,158.883 263.5,160.5C 262.768,161.808 261.934,163.142 261,164.5C 261.44,173.589 259.606,182.089 255.5,190C 255.735,190.873 256.069,191.707 256.5,192.5C 252.6,199.396 249.6,206.73 247.5,214.5C 246.712,215.77 245.712,216.77 244.5,217.5C 243.71,216.206 242.71,215.039 241.5,214C 242.449,213.383 243.282,213.549 244,214.5C 244.667,213.833 244.667,213.167 244,212.5C 242.287,211.122 240.953,209.455 240,207.5C 239.667,207.833 239.333,208.167 239,208.5C 238.598,207.128 238.098,205.795 237.5,204.5C 244.203,196.431 246.536,187.431 244.5,177.5C 244.5,176.833 244.5,176.167 244.5,175.5C 245.222,175.082 245.722,174.416 246,173.5C 246.112,166.122 246.278,158.788 246.5,151.5C 245.833,147.833 245.167,144.167 244.5,140.5C 245.687,136.056 245.353,131.722 243.5,127.5C 245.124,127.36 246.29,128.027 247,129.5C 249.454,125.702 249.954,121.702 248.5,117.5C 246.857,117.48 245.524,118.147 244.5,119.5C 242.467,117.548 242.134,115.382 243.5,113C 243.037,110.415 241.87,108.248 240,106.5C 239.333,102.833 239.333,99.1667 240,95.5C 240.708,94.6195 241.542,93.9528 242.5,93.5 Z"/></g>
<g><path style="opacity:0.925" fill="#f7ed42" d="M 28.5,104.5 C 25.9462,113.408 23.4462,122.408 21,131.5C 20.1357,137.143 19.469,142.81 19,148.5C 18.6174,149.056 18.1174,149.389 17.5,149.5C 18.2295,144.87 18.5628,140.203 18.5,135.5C 19.8561,124.434 23.1895,114.101 28.5,104.5 Z"/></g>
<g><path style="opacity:1" fill="#fbe508" d="M 200.5,104.5 C 200.987,105.473 201.487,106.473 202,107.5C 203.627,104.428 205.793,103.928 208.5,106C 209,109.167 210.833,111 214,111.5C 214.202,113.256 214.702,114.922 215.5,116.5C 217.944,119.264 219.944,122.264 221.5,125.5C 220.817,127.176 219.483,127.843 217.5,127.5C 218.023,130.028 219.023,132.361 220.5,134.5C 218.3,136.253 217.133,138.586 217,141.5C 216.617,140.944 216.117,140.611 215.5,140.5C 215.773,138.549 215.107,137.049 213.5,136C 215.984,133.716 216.151,131.216 214,128.5C 212.853,127.542 211.853,127.875 211,129.5C 210.29,128.027 209.124,127.36 207.5,127.5C 207.472,125.418 208.139,123.584 209.5,122C 209.043,121.586 208.709,121.086 208.5,120.5C 206.044,117.778 205.377,117.944 206.5,121C 205.056,121.781 203.723,121.614 202.5,120.5C 202.292,117.249 200.792,114.915 198,113.5C 197.428,110.293 195.595,108.626 192.5,108.5C 192.626,105.442 194.126,105.109 197,107.5C 195.624,106.139 194.79,104.639 194.5,103C 195.155,101.513 196.155,100.347 197.5,99.5C 200.839,100.111 201.839,101.778 200.5,104.5 Z"/></g>
<g><path style="opacity:1" fill="#fce408" d="M 221.5,125.5 C 223.129,129.112 225.462,132.112 228.5,134.5C 228.833,135.167 229.167,135.833 229.5,136.5C 228.625,141.565 228.625,146.565 229.5,151.5C 229.666,157.176 229.499,162.843 229,168.5C 227.272,170.842 225.605,173.175 224,175.5C 223.333,174.833 222.667,174.167 222,173.5C 221.798,179.476 220.798,179.81 219,174.5C 218.329,175.252 217.496,175.586 216.5,175.5C 216.5,173.5 216.5,171.5 216.5,169.5C 218.101,168.481 219.101,166.981 219.5,165C 218.167,162.667 218.167,160.333 219.5,158C 218.231,152.056 216.898,146.223 215.5,140.5C 216.117,140.611 216.617,140.944 217,141.5C 217.133,138.586 218.3,136.253 220.5,134.5C 219.023,132.361 218.023,130.028 217.5,127.5C 219.483,127.843 220.817,127.176 221.5,125.5 Z"/></g>
<g><path style="opacity:0.92" fill="#ece247" d="M 106.5,119.5 C 100.242,127.351 95.5756,136.018 92.5,145.5C 92.7564,143.208 92.4231,141.041 91.5,139C 94.5116,135.808 96.1783,131.975 96.5,127.5C 97.8221,127.67 98.9887,127.337 100,126.5C 100.366,124.548 101.199,122.882 102.5,121.5C 103.287,119.896 104.62,119.229 106.5,119.5 Z"/></g>
<g><path style="opacity:1" fill="#f7e51b" d="M 194.5,129.5 C 194.833,129.5 195.167,129.5 195.5,129.5C 196.077,132.55 194.91,134.55 192,135.5C 189.481,132.268 186.481,129.601 183,127.5C 180.697,124.704 181.031,122.371 184,120.5C 187.908,123.069 191.408,126.069 194.5,129.5 Z"/></g>
<g><path style="opacity:0.231" fill="#ddd350" d="M 206.5,129.5 C 207.496,129.414 208.329,129.748 209,130.5C 211.271,133.749 212.105,137.082 211.5,140.5C 210.636,136.441 208.97,132.774 206.5,129.5 Z"/></g>
<g><path style="opacity:0.952" fill="#efe246" d="M 262.5,113.5 C 268.386,122.49 271.719,132.49 272.5,143.5C 272.167,143.5 271.833,143.5 271.5,143.5C 271.672,142.508 271.338,141.842 270.5,141.5C 268.441,131.989 265.774,122.656 262.5,113.5 Z"/></g>
<g><path style="opacity:1" fill="#fce407" d="M 34.5,186.5 C 35.1847,188.414 35.6847,190.414 36,192.5C 36.6708,193.252 37.5041,193.586 38.5,193.5C 38.427,200.447 40.0937,206.947 43.5,213C 42.8333,213.333 42.1667,213.667 41.5,214C 43.0003,216.621 43.3337,219.288 42.5,222C 43.7839,222.684 44.9505,222.517 46,221.5C 47.0319,223.027 48.1986,224.36 49.5,225.5C 49.5858,226.496 49.2524,227.329 48.5,228C 50.591,230.993 52.591,234.16 54.5,237.5C 55.4255,238.641 56.2588,238.641 57,237.5C 58.0842,239.782 59.5842,240.116 61.5,238.5C 61.5858,239.496 61.2524,240.329 60.5,241C 62.4025,241.199 63.9025,242.033 65,243.5C 65.3333,242.833 65.6667,242.167 66,241.5C 66.4226,242.956 67.2559,243.456 68.5,243C 67.5494,242.282 67.3828,241.449 68,240.5C 68.8373,242.007 70.0039,242.507 71.5,242C 70.434,240.841 70.7673,240.008 72.5,239.5C 72.5,240.833 72.5,242.167 72.5,243.5C 69.9212,244.553 67.4212,245.887 65,247.5C 64.5065,249.134 64.3398,250.801 64.5,252.5C 63.1779,252.67 62.0113,252.337 61,251.5C 60.0467,253.455 58.7134,255.122 57,256.5C 54.772,253.36 52.1053,250.694 49,248.5C 48.0375,243.178 45.2041,239.511 40.5,237.5C 40.4208,236.07 40.7542,234.736 41.5,233.5C 39.8872,232.573 38.2205,231.739 36.5,231C 38.9361,228.681 39.1028,226.181 37,223.5C 36.6667,223.833 36.3333,224.167 36,224.5C 27.3714,213.336 22.7047,200.669 22,186.5C 21.7679,185.263 21.2679,184.263 20.5,183.5C 21.33,179.621 20.9967,175.788 19.5,172C 20.1667,171.667 20.8333,171.333 21.5,171C 20.2168,167.936 19.5501,164.603 19.5,161C 19.6667,157.833 19.8333,154.667 20,151.5C 21.4413,150.13 23.108,149.13 25,148.5C 25.1764,151.882 25.6764,155.215 26.5,158.5C 27.8333,153.833 27.8333,149.167 26.5,144.5C 24.6666,143.948 22.9999,143.115 21.5,142C 22.3333,138.5 24.5,136.333 28,135.5C 28.3603,133.579 29.1936,131.912 30.5,130.5C 31.8333,131.833 33.1667,131.833 34.5,130.5C 35.6139,131.723 35.7805,133.056 35,134.5C 34.4646,132.729 33.6313,132.396 32.5,133.5C 32.6095,136.475 32.9428,139.641 33.5,143C 30.5691,157.72 30.9024,172.22 34.5,186.5 Z"/></g>
<g><path style="opacity:0.161" fill="#e1d05c" d="M 48.5,130.5 C 48.5905,133.152 47.9238,135.485 46.5,137.5C 46.4095,134.848 47.0762,132.515 48.5,130.5 Z"/></g>
<g><path style="opacity:0.259" fill="#e8d74d" d="M 42.5,118.5 C 38.7438,129.192 36.4104,140.192 35.5,151.5C 34.3592,148.36 34.1925,145.027 35,141.5C 36.0637,136.106 37.2304,130.773 38.5,125.5C 39.4611,122.945 40.7945,120.612 42.5,118.5 Z"/></g>
<g><path style="opacity:1" fill="#fce408" d="M 88.5,169.5 C 88.4074,171.247 88.074,173.081 87.5,175C 89.2407,176.083 89.9074,177.25 89.5,178.5C 88.7472,180.559 89.4138,182.393 91.5,184C 90.7135,186.099 90.3801,188.266 90.5,190.5C 89.5,190.5 88.5,190.5 87.5,190.5C 88.0444,192.58 88.8777,194.58 90,196.5C 91.0674,197.191 92.2341,197.691 93.5,198C 93.1667,198.333 92.8333,198.667 92.5,199C 96.0708,206.187 94.7375,207.687 88.5,203.5C 87.1009,199.585 85.4342,195.751 83.5,192C 85.2617,189.034 84.5951,186.868 81.5,185.5C 80.5159,182.572 80.1826,179.572 80.5,176.5C 78.8762,176.64 77.7096,175.973 77,174.5C 76.7395,167.643 76.2395,160.809 75.5,154C 76.1227,150.519 76.6227,147.019 77,143.5C 77.3333,143.833 77.6667,144.167 78,144.5C 78.406,140.728 79.2393,137.061 80.5,133.5C 83.365,136.533 86.365,139.367 89.5,142C 89.1278,146.454 87.7944,150.787 85.5,155C 86.7556,159.925 87.7556,164.758 88.5,169.5 Z"/></g>
<g><path style="opacity:1" fill="#fde405" d="M 48.5,138.5 C 49.038,140.117 49.3713,141.784 49.5,143.5C 50.8333,143.5 52.1667,143.5 53.5,143.5C 53.3505,142.448 53.5172,141.448 54,140.5C 54.6667,139.167 55.3333,139.167 56,140.5C 56.4962,142.035 56.3295,143.535 55.5,145C 58.1899,147.835 58.8566,151.002 57.5,154.5C 57.565,159.454 58.2317,164.287 59.5,169C 58.4325,171.929 58.7658,174.763 60.5,177.5C 59.3995,179.277 58.5662,181.277 58,183.5C 57.6458,181.193 56.6458,180.859 55,182.5C 54.5,182.167 54,181.833 53.5,181.5C 53.8333,179.5 54.1667,177.5 54.5,175.5C 53.5022,172.972 52.6689,172.972 52,175.5C 51.6667,174.833 51.3333,174.167 51,173.5C 50.502,176.482 50.3354,179.482 50.5,182.5C 48.8564,182.19 47.8564,181.19 47.5,179.5C 47.0559,172.01 46.7225,164.51 46.5,157C 46.2886,150.586 46.9552,144.419 48.5,138.5 Z"/></g>
<g><path style="opacity:0.051" fill="#dfd355" d="M 238.5,129.5 C 244.068,140.996 245.735,152.996 243.5,165.5C 243.699,153.226 242.032,141.226 238.5,129.5 Z"/></g>
<g><path style="opacity:0.192" fill="#ead65b" d="M 270.5,141.5 C 271.338,141.842 271.672,142.508 271.5,143.5C 272.742,153.648 272.742,163.648 271.5,173.5C 271.646,162.813 271.312,152.146 270.5,141.5 Z"/></g>
<g><path style="opacity:0.067" fill="#eedc5d" d="M 260.5,139.5 C 262.178,144.568 262.844,149.902 262.5,155.5C 261.043,150.402 260.376,145.069 260.5,139.5 Z"/></g>
<g><path style="opacity:1" fill="#f8e92e" d="M 231.5,112.5 C 234.102,116.406 237.436,119.572 241.5,122C 240.594,123.699 240.261,125.533 240.5,127.5C 241.5,127.5 242.5,127.5 243.5,127.5C 245.353,131.722 245.687,136.056 244.5,140.5C 245.167,144.167 245.833,147.833 246.5,151.5C 246.278,158.788 246.112,166.122 246,173.5C 245.722,174.416 245.222,175.082 244.5,175.5C 244.806,172.615 244.473,169.948 243.5,167.5C 243.5,166.833 243.5,166.167 243.5,165.5C 245.735,152.996 244.068,140.996 238.5,129.5C 236.264,125.355 234.264,121.022 232.5,116.5C 232.167,115.167 231.833,113.833 231.5,112.5 Z"/></g>
<g><path style="opacity:0.043" fill="#f4e469" d="M 18.5,135.5 C 18.5628,140.203 18.2295,144.87 17.5,149.5C 17.5,150.5 17.5,151.5 17.5,152.5C 16.8333,158.833 16.1667,165.167 15.5,171.5C 15.3337,164.159 15.5003,156.826 16,149.5C 16.222,144.588 17.0554,139.921 18.5,135.5 Z"/></g>
<g><path style="opacity:1" fill="#f7e728" d="M 101.5,86.5 C 83.4934,100.171 71.1601,117.838 64.5,139.5C 60.3839,149.712 59.3839,160.379 61.5,171.5C 61.9588,175.12 62.9588,178.453 64.5,181.5C 66.4903,187.486 68.4903,193.486 70.5,199.5C 71.5726,204.505 73.2393,209.172 75.5,213.5C 73.0829,211.589 70.7496,209.422 68.5,207C 69.6843,205.855 69.6843,204.688 68.5,203.5C 69.4475,199.751 68.1142,196.751 64.5,194.5C 64.9867,193.554 65.3201,192.554 65.5,191.5C 64.0754,186.625 62.4087,181.959 60.5,177.5C 58.7658,174.763 58.4325,171.929 59.5,169C 58.2317,164.287 57.565,159.454 57.5,154.5C 59.7437,144.567 62.077,134.9 64.5,125.5C 65.8333,125.5 67.1667,125.5 68.5,125.5C 69.4699,121.265 70.8032,117.265 72.5,113.5C 74.0739,111.898 74.7406,109.898 74.5,107.5C 75.8221,107.33 76.9887,107.663 78,108.5C 78.2532,105.8 78.2532,103.133 78,100.5C 78.6667,99.1667 79.3333,99.1667 80,100.5C 82.1304,97.3027 84.9637,94.9694 88.5,93.5C 89.5071,93.5476 89.8404,92.5476 89.5,90.5C 93.4664,89.2339 97.4664,87.9005 101.5,86.5 Z"/></g>
<g><path style="opacity:0.849" fill="#f2e44e" d="M 64.5,139.5 C 63.7108,146.649 63.0441,153.816 62.5,161C 63.027,167.853 63.6936,174.687 64.5,181.5C 62.9588,178.453 61.9588,175.12 61.5,171.5C 59.3839,160.379 60.3839,149.712 64.5,139.5 Z"/></g>
<g><path style="opacity:0.055" fill="#e9dc5f" d="M 45.5,143.5 C 44.1667,155.5 44.1667,167.5 45.5,179.5C 42.8333,167.5 42.8333,155.5 45.5,143.5 Z"/></g>
<g><path style="opacity:0.129" fill="#e7d356" d="M 204.5,147.5 C 206.025,151.728 206.692,156.228 206.5,161C 206.359,165.526 206.025,170.026 205.5,174.5C 205.801,165.669 205.467,156.669 204.5,147.5 Z"/></g>
<g><path style="opacity:0.875" fill="#f3e64c" d="M 34.5,153.5 C 34.1886,167.007 35.522,180.341 38.5,193.5C 37.5041,193.586 36.6708,193.252 36,192.5C 35.6847,190.414 35.1847,188.414 34.5,186.5C 33.6734,178.855 33.0067,171.189 32.5,163.5C 32.5136,159.761 33.1803,156.428 34.5,153.5 Z"/></g>
<g><path style="opacity:0.969" fill="#f0d832" d="M 92.5,145.5 C 91.2266,156.159 91.2266,166.826 92.5,177.5C 91.7321,176.737 91.2321,175.737 91,174.5C 90.79,176.058 90.29,177.391 89.5,178.5C 89.9074,177.25 89.2407,176.083 87.5,175C 88.074,173.081 88.4074,171.247 88.5,169.5C 89.3083,162.314 90.1416,154.981 91,147.5C 91.2784,146.584 91.7784,145.918 92.5,145.5 Z"/></g>
<g><path style="opacity:0.157" fill="#d3c141" d="M 195.5,143.5 C 197.381,152.395 197.881,161.395 197,170.5C 196.76,172.852 195.927,174.852 194.5,176.5C 197.115,166.506 197.115,156.506 194.5,146.5C 194.52,145.274 194.853,144.274 195.5,143.5 Z"/></g>
<g><path style="opacity:1" fill="#fbe70f" d="M 229.5,151.5 C 230.851,160.045 230.685,168.711 229,177.5C 228.333,178.833 227.667,178.833 227,177.5C 229.622,183.991 228.289,189.657 223,194.5C 221.648,198.538 219.814,202.205 217.5,205.5C 216.794,202.83 217.46,200.33 219.5,198C 216.956,196.225 216.956,194.392 219.5,192.5C 217.815,188.403 216.982,184.069 217,179.5C 216.241,181.063 215.074,182.063 213.5,182.5C 213.759,179.728 214.759,177.395 216.5,175.5C 217.496,175.586 218.329,175.252 219,174.5C 220.798,179.81 221.798,179.476 222,173.5C 222.667,174.167 223.333,174.833 224,175.5C 225.605,173.175 227.272,170.842 229,168.5C 229.499,162.843 229.666,157.176 229.5,151.5 Z"/></g>
<g><path style="opacity:0.851" fill="#f7eb5b" d="M 290.5,163.5 C 290.289,168.328 290.289,172.995 290.5,177.5C 289.808,182.035 288.808,186.369 287.5,190.5C 288.122,182.181 288.622,173.848 289,165.5C 289.278,164.584 289.778,163.918 290.5,163.5 Z"/></g>
<g><path style="opacity:0.98" fill="#fbee35" d="M 52.5,119.5 C 52.2267,121.451 52.8934,122.951 54.5,124C 53.5842,124.278 52.9175,124.778 52.5,125.5C 51.5195,127.396 50.5195,129.396 49.5,131.5C 50.927,134.116 50.5937,136.449 48.5,138.5C 46.9552,144.419 46.2886,150.586 46.5,157C 46.7225,164.51 47.0559,172.01 47.5,179.5C 46.8333,179.5 46.1667,179.5 45.5,179.5C 44.1667,167.5 44.1667,155.5 45.5,143.5C 45.3253,141.379 45.6586,139.379 46.5,137.5C 47.9238,135.485 48.5905,133.152 48.5,130.5C 49.0653,126.463 50.3987,122.797 52.5,119.5 Z"/></g>
<g><path style="opacity:0.408" fill="#dfd157" d="M 74.5,172.5 C 76.4622,179.401 78.4622,186.401 80.5,193.5C 76.9094,187.05 74.9094,180.05 74.5,172.5 Z"/></g>
<g><path style="opacity:0.122" fill="#d0c347" d="M 194.5,176.5 C 193.786,180.933 191.786,184.6 188.5,187.5C 190.25,183.665 192.25,179.999 194.5,176.5 Z"/></g>
<g><path style="opacity:0.604" fill="#dfd54e" d="M 212.5,141.5 C 214.262,144.503 215.428,147.837 216,151.5C 216.499,157.491 216.666,163.491 216.5,169.5C 216.5,171.5 216.5,173.5 216.5,175.5C 214.759,177.395 213.759,179.728 213.5,182.5C 213.047,184.565 212.047,186.232 210.5,187.5C 216.198,172.387 216.865,157.054 212.5,141.5 Z"/></g>
<g><path style="opacity:1" fill="#f2e74b" d="M 45.5,179.5 C 46.1667,179.5 46.8333,179.5 47.5,179.5C 47.8564,181.19 48.8564,182.19 50.5,182.5C 49.3911,183.879 48.7245,185.545 48.5,187.5C 49.4376,190.812 50.2709,194.145 51,197.5C 54.1254,202.44 56.9587,207.44 59.5,212.5C 59.687,214.564 60.187,216.564 61,218.5C 64.7712,220.77 66.6045,224.104 66.5,228.5C 64.3146,228.704 62.3146,229.37 60.5,230.5C 61.6253,228.871 62.9586,227.371 64.5,226C 54.4472,212.056 48.1139,196.556 45.5,179.5 Z"/></g>
<g><path style="opacity:1" fill="#f8e626" d="M 204.5,147.5 C 205.467,156.669 205.801,165.669 205.5,174.5C 202.23,186.07 195.897,195.404 186.5,202.5C 183.442,203.973 180.275,205.306 177,206.5C 175.408,206.395 173.908,206.061 172.5,205.5C 171.833,205.5 171.5,205.167 171.5,204.5C 173.778,201.555 176.445,198.889 179.5,196.5C 183.5,194.5 186.5,191.5 188.5,187.5C 191.786,184.6 193.786,180.933 194.5,176.5C 195.927,174.852 196.76,172.852 197,170.5C 197.881,161.395 197.381,152.395 195.5,143.5C 197.472,139.908 199.972,139.574 203,142.5C 204.009,144.025 204.509,145.692 204.5,147.5 Z"/></g>
<g><path style="opacity:1" fill="#fae51a" d="M 271.5,143.5 C 271.833,143.5 272.167,143.5 272.5,143.5C 275.174,156.657 275.674,169.99 274,183.5C 273.521,186.624 272.354,189.457 270.5,192C 271.362,194.734 272.195,194.901 273,192.5C 273.667,193.833 274.333,193.833 275,192.5C 276.673,185.828 277.673,179.161 278,172.5C 279.554,178.081 281.387,183.581 283.5,189C 282.409,191.818 282.409,194.651 283.5,197.5C 282.292,202.458 281.292,207.458 280.5,212.5C 278.605,218.618 275.939,224.285 272.5,229.5C 272.344,226.934 272.678,224.434 273.5,222C 273.387,220.72 272.72,219.887 271.5,219.5C 270.752,216.503 270.085,213.503 269.5,210.5C 270.167,210.167 270.833,209.833 271.5,209.5C 270.128,207.38 270.795,206.38 273.5,206.5C 273.063,209.807 273.73,212.807 275.5,215.5C 276.881,215 277.547,214 277.5,212.5C 276.645,209.385 274.978,206.885 272.5,205C 272.833,204.667 273.167,204.333 273.5,204C 272.773,202.601 272.273,201.101 272,199.5C 271.441,201.86 270.108,204.193 268,206.5C 265.645,207.692 263.812,209.359 262.5,211.5C 262.5,210.5 262.5,209.5 262.5,208.5C 264.125,202.619 266.125,196.953 268.5,191.5C 271.065,187.837 272.398,183.67 272.5,179C 272.431,177.014 271.765,175.514 270.5,174.5C 270.5,173.833 270.833,173.5 271.5,173.5C 272.742,163.648 272.742,153.648 271.5,143.5 Z"/></g>
<g><path style="opacity:0.839" fill="#f3e552" d="M 270.5,174.5 C 271.765,175.514 272.431,177.014 272.5,179C 272.398,183.67 271.065,187.837 268.5,191.5C 269.65,185.898 270.316,180.231 270.5,174.5 Z"/></g>
<g><path style="opacity:1" fill="#fbe50b" d="M 60.5,177.5 C 62.4087,181.959 64.0754,186.625 65.5,191.5C 65.3201,192.554 64.9867,193.554 64.5,194.5C 68.1142,196.751 69.4475,199.751 68.5,203.5C 67.5636,206.295 67.5636,209.628 68.5,213.5C 65.3871,216.845 62.3871,216.512 59.5,212.5C 56.9587,207.44 54.1254,202.44 51,197.5C 50.2709,194.145 49.4376,190.812 48.5,187.5C 48.7245,185.545 49.3911,183.879 50.5,182.5C 50.3354,179.482 50.502,176.482 51,173.5C 51.3333,174.167 51.6667,174.833 52,175.5C 52.6689,172.972 53.5022,172.972 54.5,175.5C 54.1667,177.5 53.8333,179.5 53.5,181.5C 54,181.833 54.5,182.167 55,182.5C 56.6458,180.859 57.6458,181.193 58,183.5C 58.5662,181.277 59.3995,179.277 60.5,177.5 Z"/></g>
<g><path style="opacity:1" fill="#f6ea3b" d="M 17.5,152.5 C 18.1296,160.162 18.7963,167.829 19.5,175.5C 18.0441,179.656 18.2108,183.656 20,187.5C 20.49,186.207 20.6567,184.873 20.5,183.5C 21.2679,184.263 21.7679,185.263 22,186.5C 22.7047,200.669 27.3714,213.336 36,224.5C 36.3333,224.167 36.6667,223.833 37,223.5C 39.1028,226.181 38.9361,228.681 36.5,231C 38.2205,231.739 39.8872,232.573 41.5,233.5C 40.7542,234.736 40.4208,236.07 40.5,237.5C 45.2041,239.511 48.0375,243.178 49,248.5C 52.1053,250.694 54.772,253.36 57,256.5C 58.7134,255.122 60.0467,253.455 61,251.5C 62.0113,252.337 63.1779,252.67 64.5,252.5C 62.4985,255.334 59.9985,257.667 57,259.5C 32.7132,235.253 18.8799,205.92 15.5,171.5C 16.1667,165.167 16.8333,158.833 17.5,152.5 Z"/></g>
<g><path style="opacity:0.902" fill="#e8da4a" d="M 243.5,167.5 C 244.473,169.948 244.806,172.615 244.5,175.5C 244.5,176.167 244.5,176.833 244.5,177.5C 243.679,180.641 243.179,183.975 243,187.5C 241.168,190.201 239.335,192.868 237.5,195.5C 240.763,186.445 242.763,177.112 243.5,167.5 Z"/></g>
<g><path style="opacity:1" fill="#f4e84b" d="M 263.5,160.5 C 263.113,185.831 255.279,208.498 240,228.5C 234.645,224.646 230.145,219.979 226.5,214.5C 228.171,211.508 230.171,208.841 232.5,206.5C 230.809,209.645 230.309,212.979 231,216.5C 232.11,218.037 233.61,218.703 235.5,218.5C 235.833,220.5 236.167,222.5 236.5,224.5C 237.873,224.657 239.207,224.49 240.5,224C 241.933,221.827 243.266,219.66 244.5,217.5C 245.712,216.77 246.712,215.77 247.5,214.5C 249.6,206.73 252.6,199.396 256.5,192.5C 256.069,191.707 255.735,190.873 255.5,190C 259.606,182.089 261.44,173.589 261,164.5C 261.934,163.142 262.768,161.808 263.5,160.5 Z"/></g>
<g><path style="opacity:0.29" fill="#ccc136" d="M 188.5,187.5 C 186.5,191.5 183.5,194.5 179.5,196.5C 182.167,193.167 185.167,190.167 188.5,187.5 Z"/></g>
<g><path style="opacity:0.898" fill="#f7ef51" d="M 287.5,190.5 C 286.693,198.422 284.359,205.755 280.5,212.5C 281.292,207.458 282.292,202.458 283.5,197.5C 284.283,195.657 284.95,193.657 285.5,191.5C 285.957,190.702 286.624,190.369 287.5,190.5 Z"/></g>
<g><path style="opacity:0.569" fill="#e1d04f" d="M 237.5,195.5 C 237.163,199.836 235.496,203.503 232.5,206.5C 233.93,202.646 235.597,198.979 237.5,195.5 Z"/></g>
<g><path style="opacity:0.31" fill="#d2c848" d="M 179.5,196.5 C 176.445,198.889 173.778,201.555 171.5,204.5C 172.5,200.167 175.167,197.5 179.5,196.5 Z"/></g>
<g><path style="opacity:0.682" fill="#f3e844" d="M 229.5,136.5 C 237.992,166.524 231.992,193.19 211.5,216.5C 212.524,217.852 213.524,219.185 214.5,220.5C 213.833,220.5 213.167,220.5 212.5,220.5C 210.667,218.504 210.167,216.171 211,213.5C 212.946,210.58 215.113,207.913 217.5,205.5C 219.814,202.205 221.648,198.538 223,194.5C 228.289,189.657 229.622,183.991 227,177.5C 227.667,178.833 228.333,178.833 229,177.5C 230.685,168.711 230.851,160.045 229.5,151.5C 228.625,146.565 228.625,141.565 229.5,136.5 Z"/></g>
<g><path style="opacity:0.816" fill="#f0e753" d="M 80.5,193.5 C 83.7411,195.11 85.5744,197.776 86,201.5C 86.7083,202.381 87.5416,203.047 88.5,203.5C 88.6287,205.216 88.962,206.883 89.5,208.5C 85.3151,204.292 82.3151,199.292 80.5,193.5 Z"/></g>
<g><path style="opacity:0.122" fill="#ddd557" d="M 186.5,202.5 C 183.35,207.074 179.017,208.907 173.5,208C 172.748,207.329 172.414,206.496 172.5,205.5C 173.908,206.061 175.408,206.395 177,206.5C 180.275,205.306 183.442,203.973 186.5,202.5 Z"/></g>
<g><path style="opacity:1" fill="#fbe50f" d="M 217.5,205.5 C 215.113,207.913 212.946,210.58 211,213.5C 210.167,216.171 210.667,218.504 212.5,220.5C 212.586,221.496 212.252,222.329 211.5,223C 214.4,223.943 216.733,225.61 218.5,228C 217.234,228.309 216.067,228.809 215,229.5C 214.667,229.167 214.333,228.833 214,228.5C 212.887,229.76 212.72,230.927 213.5,232C 213,232.167 212.5,232.333 212,232.5C 209.206,230.44 206.372,230.106 203.5,231.5C 202.791,232.404 201.791,232.737 200.5,232.5C 200.251,230.064 199.251,228.064 197.5,226.5C 197.167,227.167 196.833,227.833 196.5,228.5C 195.833,227.833 195.167,227.167 194.5,226.5C 189.56,230.215 184.226,232.215 178.5,232.5C 178.167,233.167 177.833,233.833 177.5,234.5C 175.872,234.421 174.205,234.088 172.5,233.5C 172.225,231.158 171.392,231.158 170,233.5C 168.457,232.715 166.79,232.715 165,233.5C 157.803,230.622 158.136,228.289 166,226.5C 166.833,226.667 167.667,226.833 168.5,227C 167.167,227.667 167.167,228.333 168.5,229C 170.81,229.497 173.143,229.663 175.5,229.5C 175.5,228.167 175.5,226.833 175.5,225.5C 174.209,225.737 173.209,225.404 172.5,224.5C 175.823,224.48 178.489,222.813 180.5,219.5C 182.349,218.407 184.016,217.074 185.5,215.5C 187.147,213.674 189.147,212.34 191.5,211.5C 196.5,208.5 200.5,204.5 203.5,199.5C 205.837,195.492 208.17,191.492 210.5,187.5C 212.047,186.232 213.047,184.565 213.5,182.5C 215.074,182.063 216.241,181.063 217,179.5C 216.982,184.069 217.815,188.403 219.5,192.5C 216.956,194.392 216.956,196.225 219.5,198C 217.46,200.33 216.794,202.83 217.5,205.5 Z"/></g>
<g><path style="opacity:1" fill="#fae40d" d="M 92.5,177.5 C 94.0155,184.958 96.0155,192.291 98.5,199.5C 99.4776,199.977 100.311,200.643 101,201.5C 101.333,200.833 101.667,200.167 102,199.5C 104.416,202.663 106.582,205.996 108.5,209.5C 112.426,211.948 116.093,214.615 119.5,217.5C 118.417,217.461 117.417,217.127 116.5,216.5C 114.65,217.242 113.984,218.242 114.5,219.5C 113.707,219.069 112.873,218.735 112,218.5C 110.498,220.175 108.998,221.841 107.5,223.5C 104.46,219.919 101.794,216.085 99.5,212C 98.1011,211.405 96.7678,211.572 95.5,212.5C 93.8152,210.66 91.8152,209.327 89.5,208.5C 88.962,206.883 88.6287,205.216 88.5,203.5C 94.7375,207.687 96.0708,206.187 92.5,199C 92.8333,198.667 93.1667,198.333 93.5,198C 92.2341,197.691 91.0674,197.191 90,196.5C 88.8777,194.58 88.0444,192.58 87.5,190.5C 88.5,190.5 89.5,190.5 90.5,190.5C 90.3801,188.266 90.7135,186.099 91.5,184C 89.4138,182.393 88.7472,180.559 89.5,178.5C 90.29,177.391 90.79,176.058 91,174.5C 91.2321,175.737 91.7321,176.737 92.5,177.5 Z"/></g>
<g><path style="opacity:0.275" fill="#e6d253" d="M 203.5,199.5 C 200.5,204.5 196.5,208.5 191.5,211.5C 195.167,207.167 199.167,203.167 203.5,199.5 Z"/></g>
<g><path style="opacity:1" fill="#ede143" d="M 92.5,177.5 C 99.5738,200.24 114.574,214.907 137.5,221.5C 135.372,222.629 133.039,222.796 130.5,222C 126.773,220.564 123.107,219.064 119.5,217.5C 116.093,214.615 112.426,211.948 108.5,209.5C 106.582,205.996 104.416,202.663 102,199.5C 101.667,200.167 101.333,200.833 101,201.5C 100.311,200.643 99.4776,199.977 98.5,199.5C 96.0155,192.291 94.0155,184.958 92.5,177.5 Z"/></g>
<g><path style="opacity:1" fill="#fbe410" d="M 272.5,229.5 C 271,233.173 269,236.506 266.5,239.5C 259.113,245.162 254.113,243.329 251.5,234C 253.882,230.737 255.882,227.237 257.5,223.5C 258.325,222.614 259.325,222.281 260.5,222.5C 261.741,218.762 262.407,215.095 262.5,211.5C 263.812,209.359 265.645,207.692 268,206.5C 270.108,204.193 271.441,201.86 272,199.5C 272.273,201.101 272.773,202.601 273.5,204C 273.167,204.333 272.833,204.667 272.5,205C 274.978,206.885 276.645,209.385 277.5,212.5C 277.547,214 276.881,215 275.5,215.5C 273.73,212.807 273.063,209.807 273.5,206.5C 270.795,206.38 270.128,207.38 271.5,209.5C 270.833,209.833 270.167,210.167 269.5,210.5C 270.085,213.503 270.752,216.503 271.5,219.5C 272.72,219.887 273.387,220.72 273.5,222C 272.678,224.434 272.344,226.934 272.5,229.5 Z"/></g>
<g><path style="opacity:1" fill="#f6e936" d="M 38.5,193.5 C 42.0396,204.587 46.7063,215.254 52.5,225.5C 51.5,225.5 50.5,225.5 49.5,225.5C 48.1986,224.36 47.0319,223.027 46,221.5C 44.9505,222.517 43.7839,222.684 42.5,222C 43.3337,219.288 43.0003,216.621 41.5,214C 42.1667,213.667 42.8333,213.333 43.5,213C 40.0937,206.947 38.427,200.447 38.5,193.5 Z"/></g>
<g><path style="opacity:1" fill="#f9e413" d="M 244.5,177.5 C 246.536,187.431 244.203,196.431 237.5,204.5C 238.098,205.795 238.598,207.128 239,208.5C 239.333,208.167 239.667,207.833 240,207.5C 240.953,209.455 242.287,211.122 244,212.5C 244.667,213.167 244.667,213.833 244,214.5C 243.282,213.549 242.449,213.383 241.5,214C 242.71,215.039 243.71,216.206 244.5,217.5C 243.266,219.66 241.933,221.827 240.5,224C 239.207,224.49 237.873,224.657 236.5,224.5C 236.167,222.5 235.833,220.5 235.5,218.5C 233.61,218.703 232.11,218.037 231,216.5C 230.309,212.979 230.809,209.645 232.5,206.5C 235.496,203.503 237.163,199.836 237.5,195.5C 239.335,192.868 241.168,190.201 243,187.5C 243.179,183.975 243.679,180.641 244.5,177.5 Z"/></g>
<g><path style="opacity:0.125" fill="#dacf4d" d="M 185.5,215.5 C 184.016,217.074 182.349,218.407 180.5,219.5C 167.589,224.254 154.256,225.754 140.5,224C 139.584,223.722 138.918,223.222 138.5,222.5C 155.002,225.471 170.669,223.138 185.5,215.5 Z"/></g>
<g><path style="opacity:0.592" fill="#dfd74e" d="M 214.5,220.5 C 217.5,222.833 220.167,225.5 222.5,228.5C 218.833,226.833 216.167,224.167 214.5,220.5 Z"/></g>
<g><path style="opacity:1" fill="#fce307" d="M 80.5,239.5 C 77.4594,238.44 74.7927,238.44 72.5,239.5C 70.7673,240.008 70.434,240.841 71.5,242C 70.0039,242.507 68.8373,242.007 68,240.5C 67.3828,241.449 67.5494,242.282 68.5,243C 67.2559,243.456 66.4226,242.956 66,241.5C 65.6667,242.167 65.3333,242.833 65,243.5C 63.9025,242.033 62.4025,241.199 60.5,241C 61.2524,240.329 61.5858,239.496 61.5,238.5C 60.1854,236.865 60.1854,235.199 61.5,233.5C 65.8813,232.299 69.2146,230.299 71.5,227.5C 70.3904,225.504 70.7237,223.671 72.5,222C 71.2559,221.544 70.4226,222.044 70,223.5C 69.5518,221.776 68.7185,221.109 67.5,221.5C 67.968,219.866 68.968,218.7 70.5,218C 70.1667,217.667 69.8333,217.333 69.5,217C 70.5786,216.044 71.7453,215.211 73,214.5C 74.3333,216.5 75.6667,218.5 77,220.5C 77.3173,218.699 77.984,218.366 79,219.5C 80.7183,221.897 81.8849,224.564 82.5,227.5C 85.826,228.826 88.1593,231.159 89.5,234.5C 87.6957,235.768 85.6957,236.435 83.5,236.5C 83.5,237.5 83.5,238.5 83.5,239.5C 82.5,239.5 81.5,239.5 80.5,239.5 Z"/></g>
<g><path style="opacity:1" fill="#f4ea43" d="M 70.5,199.5 C 78.6741,216.674 91.0074,230.008 107.5,239.5C 106.833,239.5 106.5,239.833 106.5,240.5C 103.343,239.506 100.343,238.172 97.5,236.5C 93.6412,233.543 89.6412,230.543 85.5,227.5C 83.5953,225.155 82.4286,222.488 82,219.5C 79.3098,217.973 77.1432,215.973 75.5,213.5C 73.2393,209.172 71.5726,204.505 70.5,199.5 Z"/></g>
<g><path style="opacity:1" fill="#fce307" d="M 172.5,224.5 C 173.209,225.404 174.209,225.737 175.5,225.5C 175.5,226.833 175.5,228.167 175.5,229.5C 173.143,229.663 170.81,229.497 168.5,229C 167.167,228.333 167.167,227.667 168.5,227C 167.667,226.833 166.833,226.667 166,226.5C 158.136,228.289 157.803,230.622 165,233.5C 166.79,232.715 168.457,232.715 170,233.5C 171.392,231.158 172.225,231.158 172.5,233.5C 171.733,234.172 171.066,235.005 170.5,236C 164.829,236.531 159.162,237.031 153.5,237.5C 145.807,236.487 138.141,235.653 130.5,235C 129.833,234.667 129.167,234.333 128.5,234C 130.269,232.981 131.936,232.814 133.5,233.5C 135.115,232.846 136.782,232.346 138.5,232C 136.833,230.667 135.167,229.333 133.5,228C 146.488,226.877 159.488,225.71 172.5,224.5 Z"/></g>
<g><path style="opacity:1" fill="#fbe50b" d="M 212.5,220.5 C 213.167,220.5 213.833,220.5 214.5,220.5C 216.167,224.167 218.833,226.833 222.5,228.5C 223.373,230.886 224.873,232.886 227,234.5C 227.49,235.793 227.657,237.127 227.5,238.5C 230.358,238.595 232.691,239.762 234.5,242C 235.337,243.011 235.67,244.178 235.5,245.5C 237.216,245.629 238.883,245.962 240.5,246.5C 240.768,248.099 240.434,249.432 239.5,250.5C 236.975,248.823 234.309,247.323 231.5,246C 231.957,245.586 232.291,245.086 232.5,244.5C 231.5,243.5 230.5,242.5 229.5,241.5C 227.13,243.39 225.796,245.556 225.5,248C 225.667,248.5 225.833,249 226,249.5C 227.049,248.483 228.216,248.316 229.5,249C 228.167,249.667 226.833,250.333 225.5,251C 226.784,251.684 227.951,251.517 229,250.5C 231.514,253.905 234.347,254.238 237.5,251.5C 238.793,256.594 241.459,260.761 245.5,264C 243.109,263.609 240.776,263.609 238.5,264C 238.694,262.097 238.694,260.263 238.5,258.5C 237.548,260.045 237.215,261.712 237.5,263.5C 234.552,263.777 231.719,263.444 229,262.5C 228.692,263.308 228.192,263.975 227.5,264.5C 226.304,264.154 226.304,263.654 227.5,263C 225.866,262.506 224.199,262.34 222.5,262.5C 223.209,261.596 224.209,261.263 225.5,261.5C 225.36,259.876 226.027,258.71 227.5,258C 226.584,257.626 225.75,257.126 225,256.5C 223.968,252.973 221.802,250.639 218.5,249.5C 218.167,249.5 217.833,249.5 217.5,249.5C 214.869,250.478 212.202,251.478 209.5,252.5C 207.602,251.266 205.935,251.599 204.5,253.5C 205.025,254.192 205.692,254.692 206.5,255C 204.455,255.49 202.455,255.323 200.5,254.5C 194.38,253.818 188.547,255.151 183,258.5C 181.933,257.809 180.766,257.309 179.5,257C 182.611,254.305 186.277,252.972 190.5,253C 191.194,251.298 191.194,249.464 190.5,247.5C 195.127,245.426 199.793,243.926 204.5,243C 201.986,240.933 202.152,239.433 205,238.5C 205.015,236.209 205.182,234.042 205.5,232C 204.906,231.536 204.239,231.369 203.5,231.5C 206.372,230.106 209.206,230.44 212,232.5C 212.5,232.333 213,232.167 213.5,232C 212.72,230.927 212.887,229.76 214,228.5C 214.333,228.833 214.667,229.167 215,229.5C 216.067,228.809 217.234,228.309 218.5,228C 216.733,225.61 214.4,223.943 211.5,223C 212.252,222.329 212.586,221.496 212.5,220.5 Z"/></g>
<g><path style="opacity:1" fill="#f0e647" d="M 262.5,208.5 C 262.5,209.5 262.5,210.5 262.5,211.5C 262.407,215.095 261.741,218.762 260.5,222.5C 259.325,222.281 258.325,222.614 257.5,223.5C 255.882,227.237 253.882,230.737 251.5,234C 254.113,243.329 259.113,245.162 266.5,239.5C 265.588,241.595 264.421,243.595 263,245.5C 261.534,247.325 259.701,247.825 257.5,247C 253.452,243.288 249.785,239.288 246.5,235C 252.759,226.636 258.092,217.802 262.5,208.5 Z"/></g>
<g><path style="opacity:1" fill="#f9e619" d="M 89.5,208.5 C 91.8152,209.327 93.8152,210.66 95.5,212.5C 96.7678,211.572 98.1011,211.405 99.5,212C 101.794,216.085 104.46,219.919 107.5,223.5C 108.998,221.841 110.498,220.175 112,218.5C 112.873,218.735 113.707,219.069 114.5,219.5C 113.984,218.242 114.65,217.242 116.5,216.5C 117.417,217.127 118.417,217.461 119.5,217.5C 123.107,219.064 126.773,220.564 130.5,222C 133.039,222.796 135.372,222.629 137.5,221.5C 138.167,221.5 138.5,221.833 138.5,222.5C 138.918,223.222 139.584,223.722 140.5,224C 154.256,225.754 167.589,224.254 180.5,219.5C 178.489,222.813 175.823,224.48 172.5,224.5C 159.488,225.71 146.488,226.877 133.5,228C 135.167,229.333 136.833,230.667 138.5,232C 136.782,232.346 135.115,232.846 133.5,233.5C 131.936,232.814 130.269,232.981 128.5,234C 129.167,234.333 129.833,234.667 130.5,235C 138.141,235.653 145.807,236.487 153.5,237.5C 145.12,237.738 136.787,237.238 128.5,236C 125.544,234.658 123.544,232.992 122.5,231C 117.245,228.869 111.911,227.036 106.5,225.5C 99.8122,220.812 94.1455,215.146 89.5,208.5 Z"/></g>
<g><path style="opacity:1" fill="#f9e811" d="M 68.5,203.5 C 69.6843,204.688 69.6843,205.855 68.5,207C 70.7496,209.422 73.0829,211.589 75.5,213.5C 77.1432,215.973 79.3098,217.973 82,219.5C 82.4286,222.488 83.5953,225.155 85.5,227.5C 89.6412,230.543 93.6412,233.543 97.5,236.5C 92.4658,237.515 88.4658,240.515 85.5,245.5C 83.8103,243.481 82.1436,241.481 80.5,239.5C 81.5,239.5 82.5,239.5 83.5,239.5C 83.5,238.5 83.5,237.5 83.5,236.5C 85.6957,236.435 87.6957,235.768 89.5,234.5C 88.1593,231.159 85.826,228.826 82.5,227.5C 81.8849,224.564 80.7183,221.897 79,219.5C 77.984,218.366 77.3173,218.699 77,220.5C 75.6667,218.5 74.3333,216.5 73,214.5C 71.7453,215.211 70.5786,216.044 69.5,217C 69.8333,217.333 70.1667,217.667 70.5,218C 68.968,218.7 67.968,219.866 67.5,221.5C 68.7185,221.109 69.5518,221.776 70,223.5C 70.4226,222.044 71.2559,221.544 72.5,222C 70.7237,223.671 70.3904,225.504 71.5,227.5C 69.2146,230.299 65.8813,232.299 61.5,233.5C 60.1854,235.199 60.1854,236.865 61.5,238.5C 59.5842,240.116 58.0842,239.782 57,237.5C 56.2588,238.641 55.4255,238.641 54.5,237.5C 52.591,234.16 50.591,230.993 48.5,228C 49.2524,227.329 49.5858,226.496 49.5,225.5C 50.5,225.5 51.5,225.5 52.5,225.5C 54.4695,227.647 56.3029,229.98 58,232.5C 58.7083,231.619 59.5416,230.953 60.5,230.5C 62.3146,229.37 64.3146,228.704 66.5,228.5C 66.6045,224.104 64.7712,220.77 61,218.5C 60.187,216.564 59.687,214.564 59.5,212.5C 62.3871,216.512 65.3871,216.845 68.5,213.5C 67.5636,209.628 67.5636,206.295 68.5,203.5 Z"/></g>
<g><path style="opacity:1" fill="#f6ea3a" d="M 106.5,225.5 C 111.911,227.036 117.245,228.869 122.5,231C 123.544,232.992 125.544,234.658 128.5,236C 136.787,237.238 145.12,237.738 153.5,237.5C 159.162,237.031 164.829,236.531 170.5,236C 171.066,235.005 171.733,234.172 172.5,233.5C 174.205,234.088 175.872,234.421 177.5,234.5C 177.833,233.833 178.167,233.167 178.5,232.5C 184.226,232.215 189.56,230.215 194.5,226.5C 195.167,227.167 195.833,227.833 196.5,228.5C 196.833,227.833 197.167,227.167 197.5,226.5C 199.251,228.064 200.251,230.064 200.5,232.5C 199.143,231.315 197.643,230.315 196,229.5C 184.674,235.998 172.507,239.998 159.5,241.5C 151.366,240.002 143.032,239.002 134.5,238.5C 123.83,236.829 114.497,232.496 106.5,225.5 Z"/></g>
<g><path style="opacity:1" fill="#eddf43" d="M 222.5,228.5 C 228.833,234.167 234.833,240.167 240.5,246.5C 238.883,245.962 237.216,245.629 235.5,245.5C 235.67,244.178 235.337,243.011 234.5,242C 232.691,239.762 230.358,238.595 227.5,238.5C 227.657,237.127 227.49,235.793 227,234.5C 224.873,232.886 223.373,230.886 222.5,228.5 Z"/></g>
<g><path style="opacity:1" fill="#f3e947" d="M 80.5,239.5 C 82.1436,241.481 83.8103,243.481 85.5,245.5C 85.8333,246.167 86.1667,246.833 86.5,247.5C 83.2515,245.597 80.2515,243.263 77.5,240.5C 73.1465,244.522 68.8131,248.522 64.5,252.5C 64.3398,250.801 64.5065,249.134 65,247.5C 67.4212,245.887 69.9212,244.553 72.5,243.5C 72.5,242.167 72.5,240.833 72.5,239.5C 74.7927,238.44 77.4594,238.44 80.5,239.5 Z"/></g>
<g><path style="opacity:0.047" fill="#e7da59" d="M 134.5,238.5 C 143.032,239.002 151.366,240.002 159.5,241.5C 150.839,242.041 142.506,241.041 134.5,238.5 Z"/></g>
<g><path style="opacity:0.078" fill="#d5ce4b" d="M 198.5,240.5 C 193.046,245.055 186.713,247.721 179.5,248.5C 185.881,246.149 192.214,243.482 198.5,240.5 Z"/></g>
<g><path style="opacity:1" fill="#fbe613" d="M 97.5,236.5 C 100.343,238.172 103.343,239.506 106.5,240.5C 110.683,243.591 115.35,245.591 120.5,246.5C 120.833,246.5 121.167,246.5 121.5,246.5C 121.611,247.117 121.944,247.617 122.5,248C 128.056,249.972 133.722,251.472 139.5,252.5C 142.718,253.954 146.218,254.621 150,254.5C 156.485,253.834 162.985,253.501 169.5,253.5C 157.308,256.366 145.142,256.033 133,252.5C 130.195,253.597 127.362,253.597 124.5,252.5C 117.969,253.754 117.969,254.42 124.5,254.5C 124.5,255.833 124.5,257.167 124.5,258.5C 121.881,258.768 119.381,258.435 117,257.5C 115.055,258.863 112.888,259.697 110.5,260C 115.526,261.388 120.526,262.555 125.5,263.5C 125.238,262.022 125.571,260.689 126.5,259.5C 127.386,260.325 127.719,261.325 127.5,262.5C 128.822,262.33 129.989,262.663 131,263.5C 131.483,262.552 131.649,261.552 131.5,260.5C 134.131,260.966 136.298,261.633 138,262.5C 138.667,263.167 138.667,263.833 138,264.5C 137.107,263.289 136.274,263.289 135.5,264.5C 137.019,267.064 138.519,267.064 140,264.5C 142.323,265.719 144.49,267.052 146.5,268.5C 141.821,268.666 137.155,268.499 132.5,268C 125.508,266.057 118.508,264.224 111.5,262.5C 109.597,262.204 107.93,261.537 106.5,260.5C 103.563,255.688 99.2295,252.855 93.5,252C 92.2567,250.846 91.2567,249.512 90.5,248C 89.2068,247.51 87.8734,247.343 86.5,247.5C 86.1667,246.833 85.8333,246.167 85.5,245.5C 88.4658,240.515 92.4658,237.515 97.5,236.5 Z"/></g>
<g><path style="opacity:0.42" fill="#e5d256" d="M 106.5,240.5 C 106.5,239.833 106.833,239.5 107.5,239.5C 112.027,241.595 116.361,243.928 120.5,246.5C 115.35,245.591 110.683,243.591 106.5,240.5 Z"/></g>
<g><path style="opacity:0.404" fill="#dfd158" d="M 121.5,246.5 C 130.551,249.71 139.884,251.377 149.5,251.5C 146.375,252.479 143.042,252.813 139.5,252.5C 133.722,251.472 128.056,249.972 122.5,248C 121.944,247.617 121.611,247.117 121.5,246.5 Z"/></g>
<g><path style="opacity:1" fill="#fce407" d="M 190.5,247.5 C 191.194,249.464 191.194,251.298 190.5,253C 186.277,252.972 182.611,254.305 179.5,257C 180.766,257.309 181.933,257.809 183,258.5C 188.547,255.151 194.38,253.818 200.5,254.5C 196.32,258.092 191.654,260.925 186.5,263C 184.112,263.303 181.945,264.137 180,265.5C 178.284,265.589 176.451,265.256 174.5,264.5C 171.567,265.112 169.234,266.445 167.5,268.5C 160.5,268.5 153.5,268.5 146.5,268.5C 144.49,267.052 142.323,265.719 140,264.5C 138.519,267.064 137.019,267.064 135.5,264.5C 136.274,263.289 137.107,263.289 138,264.5C 138.667,263.833 138.667,263.167 138,262.5C 136.298,261.633 134.131,260.966 131.5,260.5C 131.649,261.552 131.483,262.552 131,263.5C 129.989,262.663 128.822,262.33 127.5,262.5C 127.719,261.325 127.386,260.325 126.5,259.5C 125.571,260.689 125.238,262.022 125.5,263.5C 120.526,262.555 115.526,261.388 110.5,260C 112.888,259.697 115.055,258.863 117,257.5C 119.381,258.435 121.881,258.768 124.5,258.5C 124.5,257.167 124.5,255.833 124.5,254.5C 117.969,254.42 117.969,253.754 124.5,252.5C 127.362,253.597 130.195,253.597 133,252.5C 145.142,256.033 157.308,256.366 169.5,253.5C 176.498,251.392 183.498,249.392 190.5,247.5 Z"/></g>
<g><path style="opacity:0.959" fill="#f5e639" d="M 203.5,231.5 C 204.239,231.369 204.906,231.536 205.5,232C 205.182,234.042 205.015,236.209 205,238.5C 202.152,239.433 201.986,240.933 204.5,243C 199.793,243.926 195.127,245.426 190.5,247.5C 183.498,249.392 176.498,251.392 169.5,253.5C 162.985,253.501 156.485,253.834 150,254.5C 146.218,254.621 142.718,253.954 139.5,252.5C 143.042,252.813 146.375,252.479 149.5,251.5C 159.525,251.94 169.525,250.94 179.5,248.5C 186.713,247.721 193.046,245.055 198.5,240.5C 200.094,239.017 201.76,237.517 203.5,236C 202.29,234.961 201.29,233.794 200.5,232.5C 201.791,232.737 202.791,232.404 203.5,231.5 Z"/></g>
<g><path style="opacity:0.867" fill="#f3ee4b" d="M 86.5,247.5 C 87.8734,247.343 89.2068,247.51 90.5,248C 91.2567,249.512 92.2567,250.846 93.5,252C 99.2295,252.855 103.563,255.688 106.5,260.5C 101.728,258.28 97.0616,255.78 92.5,253C 90.0038,251.669 88.0038,249.836 86.5,247.5 Z"/></g>
<g><path style="opacity:1" fill="#f8eb33" d="M 217.5,249.5 C 211.067,255.229 203.733,259.729 195.5,263C 191.693,264.881 187.693,266.047 183.5,266.5C 178.257,267.81 172.923,268.476 167.5,268.5C 169.234,266.445 171.567,265.112 174.5,264.5C 176.451,265.256 178.284,265.589 180,265.5C 181.945,264.137 184.112,263.303 186.5,263C 191.654,260.925 196.32,258.092 200.5,254.5C 202.455,255.323 204.455,255.49 206.5,255C 205.692,254.692 205.025,254.192 204.5,253.5C 205.935,251.599 207.602,251.266 209.5,252.5C 212.202,251.478 214.869,250.478 217.5,249.5 Z"/></g>
<g><path style="opacity:0.906" fill="#eae356" d="M 85.5,259.5 C 83.2549,258.365 80.9216,257.865 78.5,258C 74.6118,260.387 71.6118,263.553 69.5,267.5C 69.5288,269.029 70.1955,270.196 71.5,271C 75.8695,272.213 79.2028,274.713 81.5,278.5C 75.8589,276.005 70.8589,272.505 66.5,268C 70.1618,261.972 75.1618,257.972 81.5,256C 83.0931,256.949 84.4264,258.115 85.5,259.5 Z"/></g>
<g><path style="opacity:1" fill="#f3e532" d="M 240.5,246.5 C 248.5,253.833 256.167,261.5 263.5,269.5C 263.5,270.167 263.5,270.833 263.5,271.5C 261.473,271.662 259.473,271.495 257.5,271C 257.833,270.667 258.167,270.333 258.5,270C 256.344,268.397 255.01,266.23 254.5,263.5C 252.51,262.502 250.51,261.502 248.5,260.5C 247.249,255.583 244.249,252.249 239.5,250.5C 240.434,249.432 240.768,248.099 240.5,246.5 Z"/></g>
<g><path style="opacity:0.902" fill="#f1e345" d="M 218.5,249.5 C 221.802,250.639 223.968,252.973 225,256.5C 225.75,257.126 226.584,257.626 227.5,258C 226.027,258.71 225.36,259.876 225.5,261.5C 224.209,261.263 223.209,261.596 222.5,262.5C 219.921,262.865 217.588,262.865 215.5,262.5C 218.455,260.878 221.122,258.878 223.5,256.5C 221.395,254.408 219.728,252.075 218.5,249.5 Z"/></g>
<g><path style="opacity:1" fill="#fbe511" d="M 85.5,259.5 C 85.3832,261.484 86.0499,263.15 87.5,264.5C 91.4259,266.712 95.2593,269.045 99,271.5C 99.414,271.043 99.914,270.709 100.5,270.5C 102.626,271.37 104.626,272.37 106.5,273.5C 104.337,275.322 104.837,276.989 108,278.5C 109.494,277.253 110.994,277.253 112.5,278.5C 110.336,280.291 107.836,281.624 105,282.5C 104.228,282.355 103.561,282.022 103,281.5C 102.612,282.428 101.945,283.095 101,283.5C 100.955,282.077 99.7885,281.077 97.5,280.5C 95.5121,281.289 95.1787,282.455 96.5,284C 100.719,284.173 104.719,285.173 108.5,287C 107.584,287.278 106.918,287.778 106.5,288.5C 103.007,287.027 99.34,285.86 95.5,285C 93.6789,282.863 91.3456,282.03 88.5,282.5C 85.6689,281.921 83.3356,280.588 81.5,278.5C 79.2028,274.713 75.8695,272.213 71.5,271C 70.1955,270.196 69.5288,269.029 69.5,267.5C 71.6118,263.553 74.6118,260.387 78.5,258C 80.9216,257.865 83.2549,258.365 85.5,259.5 Z"/></g>
<g><path style="opacity:0.927" fill="#f1e249" d="M 111.5,262.5 C 118.508,264.224 125.508,266.057 132.5,268C 137.155,268.499 141.821,268.666 146.5,268.5C 153.5,268.5 160.5,268.5 167.5,268.5C 172.923,268.476 178.257,267.81 183.5,266.5C 174.26,269.831 164.593,271.498 154.5,271.5C 139.389,271.541 125.056,268.541 111.5,262.5 Z"/></g>
<g><path style="opacity:1" fill="#fce408" d="M 239.5,250.5 C 244.249,252.249 247.249,255.583 248.5,260.5C 250.51,261.502 252.51,262.502 254.5,263.5C 255.01,266.23 256.344,268.397 258.5,270C 258.167,270.333 257.833,270.667 257.5,271C 259.473,271.495 261.473,271.662 263.5,271.5C 262.665,272.943 261.332,273.943 259.5,274.5C 260.077,276.55 261.41,277.55 263.5,277.5C 264.545,280.385 266.545,282.552 269.5,284C 269.167,284.333 268.833,284.667 268.5,285C 270.112,285.72 271.612,285.554 273,284.5C 274.693,286.604 276.86,288.104 279.5,289C 276.159,288.968 272.826,288.468 269.5,287.5C 267.547,288.156 265.547,288.489 263.5,288.5C 261.675,285.171 258.842,283.171 255,282.5C 253.303,280.301 251.803,277.968 250.5,275.5C 251.025,274.808 251.692,274.308 252.5,274C 250.965,273.504 249.465,273.67 248,274.5C 246.386,273.183 245.219,271.517 244.5,269.5C 241.833,268.167 239.167,266.833 236.5,265.5C 234.833,266.833 233.167,268.167 231.5,269.5C 232.471,270.962 232.138,272.295 230.5,273.5C 228.614,274.406 226.78,275.406 225,276.5C 223.484,273.949 222.651,274.282 222.5,277.5C 219.774,277.736 217.441,276.903 215.5,275C 216.634,273.984 216.301,273.317 214.5,273C 215.336,271.757 215.003,270.59 213.5,269.5C 212.205,270.098 210.872,270.598 209.5,271C 213.005,271.964 213.338,273.464 210.5,275.5C 206.617,275.109 202.95,275.776 199.5,277.5C 198.417,278.365 198.251,279.365 199,280.5C 199.556,278.405 200.056,278.238 200.5,280C 200.095,280.945 199.428,281.612 198.5,282C 199.74,285.614 198.74,286.281 195.5,284C 195.833,283.667 196.167,283.333 196.5,283C 195.359,281.383 194.526,279.55 194,277.5C 192.333,278.5 191,279.833 190,281.5C 189.13,279.365 187.963,278.365 186.5,278.5C 188.629,277.797 190.629,276.797 192.5,275.5C 193.496,275.414 194.329,275.748 195,276.5C 195.5,275.333 196.333,274.5 197.5,274C 203.366,272.633 208.7,270.133 213.5,266.5C 214.386,265.675 214.719,264.675 214.5,263.5C 214.5,262.833 214.833,262.5 215.5,262.5C 217.588,262.865 219.921,262.865 222.5,262.5C 224.199,262.34 225.866,262.506 227.5,263C 226.304,263.654 226.304,264.154 227.5,264.5C 228.192,263.975 228.692,263.308 229,262.5C 231.719,263.444 234.552,263.777 237.5,263.5C 237.215,261.712 237.548,260.045 238.5,258.5C 238.694,260.263 238.694,262.097 238.5,264C 240.776,263.609 243.109,263.609 245.5,264C 241.459,260.761 238.793,256.594 237.5,251.5C 234.347,254.238 231.514,253.905 229,250.5C 227.951,251.517 226.784,251.684 225.5,251C 226.833,250.333 228.167,249.667 229.5,249C 228.216,248.316 227.049,248.483 226,249.5C 225.833,249 225.667,248.5 225.5,248C 225.796,245.556 227.13,243.39 229.5,241.5C 230.5,242.5 231.5,243.5 232.5,244.5C 232.291,245.086 231.957,245.586 231.5,246C 234.309,247.323 236.975,248.823 239.5,250.5 Z"/></g>
<g><path style="opacity:1" fill="#f1e63c" d="M 85.5,259.5 C 93.5751,264.408 101.908,268.741 110.5,272.5C 111.167,273.167 111.833,273.833 112.5,274.5C 110.435,274.483 108.435,274.15 106.5,273.5C 104.626,272.37 102.626,271.37 100.5,270.5C 99.914,270.709 99.414,271.043 99,271.5C 95.2593,269.045 91.4259,266.712 87.5,264.5C 86.0499,263.15 85.3832,261.484 85.5,259.5 Z"/></g>
<g><path style="opacity:1" fill="#f8ea34" d="M 263.5,288.5 C 263.626,291.595 265.293,293.428 268.5,294C 273.448,295.05 278.448,295.55 283.5,295.5C 280.571,296.609 274.238,296.942 264.5,296.5C 255.535,288.036 246.702,279.369 238,270.5C 222.68,282.41 205.513,290.41 186.5,294.5C 188.042,293.859 189.376,292.859 190.5,291.5C 193.836,290.76 197.17,290.094 200.5,289.5C 201.597,287.771 202.763,286.104 204,284.5C 208.405,285.59 212.238,284.423 215.5,281C 213.627,279.296 211.96,277.463 210.5,275.5C 213.338,273.464 213.005,271.964 209.5,271C 210.872,270.598 212.205,270.098 213.5,269.5C 215.003,270.59 215.336,271.757 214.5,273C 216.301,273.317 216.634,273.984 215.5,275C 217.441,276.903 219.774,277.736 222.5,277.5C 222.651,274.282 223.484,273.949 225,276.5C 226.78,275.406 228.614,274.406 230.5,273.5C 232.138,272.295 232.471,270.962 231.5,269.5C 233.167,268.167 234.833,266.833 236.5,265.5C 239.167,266.833 241.833,268.167 244.5,269.5C 245.219,271.517 246.386,273.183 248,274.5C 249.465,273.67 250.965,273.504 252.5,274C 251.692,274.308 251.025,274.808 250.5,275.5C 251.803,277.968 253.303,280.301 255,282.5C 258.842,283.171 261.675,285.171 263.5,288.5 Z"/></g>
<g><path style="opacity:0.541" fill="#d8cb4a" d="M 263.5,269.5 C 267.5,272.833 271.167,276.5 274.5,280.5C 270.562,277.902 266.895,274.902 263.5,271.5C 263.5,270.833 263.5,270.167 263.5,269.5 Z"/></g>
<g><path style="opacity:1" fill="#f5e73f" d="M 214.5,263.5 C 214.719,264.675 214.386,265.675 213.5,266.5C 208.7,270.133 203.366,272.633 197.5,274C 196.333,274.5 195.5,275.333 195,276.5C 194.329,275.748 193.496,275.414 192.5,275.5C 193.833,274.5 195.167,273.5 196.5,272.5C 202.435,269.533 208.435,266.533 214.5,263.5 Z"/></g>
<g><path style="opacity:0.137" fill="#daca54" d="M 196.5,272.5 C 195.167,273.5 193.833,274.5 192.5,275.5C 186.103,276.68 179.769,278.18 173.5,280C 167.147,280.293 160.813,280.793 154.5,281.5C 153.274,281.48 152.274,281.147 151.5,280.5C 166.93,280.095 181.93,277.429 196.5,272.5 Z"/></g>
<g><path style="opacity:1" fill="#fce508" d="M 210.5,275.5 C 211.96,277.463 213.627,279.296 215.5,281C 212.238,284.423 208.405,285.59 204,284.5C 202.763,286.104 201.597,287.771 200.5,289.5C 197.17,290.094 193.836,290.76 190.5,291.5C 189.376,292.859 188.042,293.859 186.5,294.5C 176.842,296.025 166.342,296.691 155,296.5C 146.475,296.438 137.975,296.104 129.5,295.5C 130.263,294.732 131.263,294.232 132.5,294C 131.167,293.333 131.167,292.667 132.5,292C 134.881,291.405 136.881,290.905 138.5,290.5C 137.895,288.519 136.895,288.185 135.5,289.5C 132.531,288.193 129.865,286.527 127.5,284.5C 130.08,283.884 132.747,283.551 135.5,283.5C 143.513,283.867 151.18,284.867 158.5,286.5C 164.362,284.733 170.362,283.566 176.5,283C 176.167,282.667 175.833,282.333 175.5,282C 179.537,281.887 183.204,280.721 186.5,278.5C 187.963,278.365 189.13,279.365 190,281.5C 191,279.833 192.333,278.5 194,277.5C 194.526,279.55 195.359,281.383 196.5,283C 196.167,283.333 195.833,283.667 195.5,284C 198.74,286.281 199.74,285.614 198.5,282C 199.428,281.612 200.095,280.945 200.5,280C 200.056,278.238 199.556,278.405 199,280.5C 198.251,279.365 198.417,278.365 199.5,277.5C 202.95,275.776 206.617,275.109 210.5,275.5 Z"/></g>
<g><path style="opacity:0.608" fill="#dfd453" d="M 110.5,272.5 C 117.12,274.428 123.786,276.261 130.5,278C 137.112,279.21 143.778,279.71 150.5,279.5C 145.015,280.652 139.349,280.818 133.5,280C 126.391,278.462 119.391,276.628 112.5,274.5C 111.833,273.833 111.167,273.167 110.5,272.5 Z"/></g>
<g><path style="opacity:1" fill="#f8e720" d="M 112.5,274.5 C 119.391,276.628 126.391,278.462 133.5,280C 139.349,280.818 145.015,280.652 150.5,279.5C 151.167,279.5 151.5,279.833 151.5,280.5C 152.274,281.147 153.274,281.48 154.5,281.5C 160.813,280.793 167.147,280.293 173.5,280C 179.769,278.18 186.103,276.68 192.5,275.5C 190.629,276.797 188.629,277.797 186.5,278.5C 183.204,280.721 179.537,281.887 175.5,282C 175.833,282.333 176.167,282.667 176.5,283C 170.362,283.566 164.362,284.733 158.5,286.5C 151.18,284.867 143.513,283.867 135.5,283.5C 132.747,283.551 130.08,283.884 127.5,284.5C 122.523,283.844 118.189,281.844 114.5,278.5C 115.025,277.808 115.692,277.308 116.5,277C 114.934,276.392 113.6,275.558 112.5,274.5 Z"/></g>
<g><path style="opacity:1" fill="#fce30a" d="M 106.5,273.5 C 108.435,274.15 110.435,274.483 112.5,274.5C 113.6,275.558 114.934,276.392 116.5,277C 115.692,277.308 115.025,277.808 114.5,278.5C 118.189,281.844 122.523,283.844 127.5,284.5C 129.865,286.527 132.531,288.193 135.5,289.5C 136.895,288.185 137.895,288.519 138.5,290.5C 136.881,290.905 134.881,291.405 132.5,292C 131.167,292.667 131.167,293.333 132.5,294C 131.263,294.232 130.263,294.732 129.5,295.5C 121.571,293.788 113.904,291.455 106.5,288.5C 106.918,287.778 107.584,287.278 108.5,287C 104.719,285.173 100.719,284.173 96.5,284C 95.1787,282.455 95.5121,281.289 97.5,280.5C 99.7885,281.077 100.955,282.077 101,283.5C 101.945,283.095 102.612,282.428 103,281.5C 103.561,282.022 104.228,282.355 105,282.5C 107.836,281.624 110.336,280.291 112.5,278.5C 110.994,277.253 109.494,277.253 108,278.5C 104.837,276.989 104.337,275.322 106.5,273.5 Z"/></g>
<g><path style="opacity:1" fill="#fbe611" d="M 263.5,271.5 C 266.895,274.902 270.562,277.902 274.5,280.5C 275.5,280.833 276.167,281.5 276.5,282.5C 278.051,285.563 280.218,288.229 283,290.5C 284.036,292.299 284.203,293.966 283.5,295.5C 278.448,295.55 273.448,295.05 268.5,294C 265.293,293.428 263.626,291.595 263.5,288.5C 265.547,288.489 267.547,288.156 269.5,287.5C 272.826,288.468 276.159,288.968 279.5,289C 276.86,288.104 274.693,286.604 273,284.5C 271.612,285.554 270.112,285.72 268.5,285C 268.833,284.667 269.167,284.333 269.5,284C 266.545,282.552 264.545,280.385 263.5,277.5C 261.41,277.55 260.077,276.55 259.5,274.5C 261.332,273.943 262.665,272.943 263.5,271.5 Z"/></g>
<g><path style="opacity:0.976" fill="#dfd346" d="M 276.5,282.5 C 281.984,286.64 286.317,291.64 289.5,297.5C 280.983,297.826 272.65,297.493 264.5,296.5C 274.238,296.942 280.571,296.609 283.5,295.5C 284.203,293.966 284.036,292.299 283,290.5C 280.218,288.229 278.051,285.563 276.5,282.5 Z"/></g>
<g><path style="opacity:0.893" fill="#f7ec4e" d="M 88.5,282.5 C 91.3456,282.03 93.6789,282.863 95.5,285C 99.34,285.86 103.007,287.027 106.5,288.5C 113.904,291.455 121.571,293.788 129.5,295.5C 137.975,296.104 146.475,296.438 155,296.5C 166.342,296.691 176.842,296.025 186.5,294.5C 181.781,296.295 176.781,297.462 171.5,298C 145.089,301.486 119.756,297.82 95.5,287C 92.7613,285.974 90.428,284.474 88.5,282.5 Z"/></g>
</svg>
